<?xml version="1.0" standalone="no"?>
<!DOCTYPE svg PUBLIC "-//W3C//DTD SVG 20010904//EN"
 "http://www.w3.org/TR/2001/REC-SVG-20010904/DTD/svg10.dtd">
<svg version="1.0" xmlns="http://www.w3.org/2000/svg"
 width="640.000000pt" height="689.000000pt" viewBox="0 0 640.000000 689.000000"
 preserveAspectRatio="xMidYMid meet">

<g transform="translate(0.000000,689.000000) scale(0.100000,-0.100000)"
fill="#000000" stroke="none">
<path d="M3355 6625 c-419 -208 -519 -254 -565 -260 -87 -10 -216 -34 -330
-61 -78 -19 -109 -23 -125 -15 -11 6 -108 41 -215 77 -107 37 -239 82 -293
100 -54 19 -105 34 -112 34 -8 0 -84 -141 -184 -344 -153 -310 -175 -347 -213
-377 -161 -124 -248 -199 -354 -304 -142 -141 -224 -233 -224 -252 0 -7 -4
-12 -10 -11 -8 3 -110 -126 -157 -198 -7 -11 -28 -41 -48 -69 -19 -27 -39 -59
-44 -71 -5 -11 -28 -52 -51 -90 -47 -76 -174 -332 -173 -348 0 -6 4 -20 8 -31
6 -16 5 -17 -4 -5 -10 13 -12 13 -21 0 -6 -8 -8 -23 -6 -33 2 -9 0 -15 -5 -11
-5 3 -9 -2 -9 -11 0 -8 -4 -23 -9 -33 -32 -63 -126 -370 -116 -380 3 -3 1 -10
-4 -16 -26 -32 -78 -447 -84 -666 -6 -263 40 -633 109 -875 14 -50 29 -103 34
-120 50 -178 229 -583 252 -569 7 4 8 3 4 -5 -10 -16 137 -280 173 -311 4 -3
12 -17 18 -32 7 -16 17 -28 23 -28 5 0 10 -5 10 -11 0 -25 187 -242 202 -233
4 3 6 -1 3 -8 -6 -14 76 -97 205 -208 41 -36 88 -77 105 -92 20 -18 37 -26 50
-22 14 4 16 3 7 -4 -11 -7 -1 -19 40 -50 164 -126 267 -194 281 -185 5 3 7 2
4 -4 -6 -9 7 -18 128 -86 160 -90 412 -197 585 -250 114 -35 266 -74 315 -82
22 -3 56 -10 75 -15 19 -5 62 -12 95 -15 33 -3 72 -8 88 -11 85 -17 412 -31
522 -23 443 33 582 56 815 138 285 99 592 248 806 391 72 48 139 94 150 103
158 127 279 235 369 328 130 134 211 228 208 240 -2 5 1 9 6 9 14 0 154 191
156 212 1 10 5 21 10 25 4 5 5 2 1 -4 -4 -7 -5 -13 -3 -13 12 0 97 151 91 161
-4 8 -3 9 4 5 7 -4 19 9 32 33 23 47 25 55 8 46 -7 -4 -5 0 5 8 9 8 17 19 17
26 0 6 5 11 10 11 21 0 140 271 204 464 39 117 93 321 101 381 2 21 7 45 9 54
16 50 69 567 60 582 -1 3 -4 25 -5 50 -8 235 -53 550 -108 759 -25 96 -62 217
-71 232 -6 10 -10 24 -10 32 0 7 -7 19 -15 26 -8 7 -12 16 -9 21 3 5 -2 23
-10 41 -8 18 -22 51 -31 73 -37 94 -59 134 -68 128 -6 -3 -7 -1 -3 5 7 12 -84
194 -135 268 -19 27 -34 51 -34 54 0 16 -48 79 -56 75 -5 -4 -6 0 -4 7 3 8 -6
25 -20 38 -14 13 -25 28 -25 33 0 34 -333 413 -352 400 -7 -3 -8 -1 -4 5 8 13
-61 79 -77 74 -4 -1 -6 2 -2 7 3 6 -50 55 -117 111 -68 55 -129 105 -136 111
-7 5 -17 7 -24 3 -6 -4 -8 -3 -5 3 9 14 -80 76 -95 67 -7 -4 -8 -3 -4 4 4 6
-4 17 -16 25 -149 91 -191 123 -280 211 -55 56 -105 100 -110 98 -5 -1 -7 1
-4 6 6 10 -674 703 -689 702 -5 -1 -239 -115 -520 -255z m542 185 c13 -15 20
-17 30 -8 7 6 16 8 20 4 3 -3 1 -6 -5 -6 -24 0 -11 -22 50 -85 55 -58 91 -85
72 -53 -4 7 -3 8 5 4 6 -4 9 -12 5 -17 -3 -6 26 -43 65 -82 39 -40 195 -199
347 -354 153 -156 283 -283 291 -283 8 0 12 -4 9 -8 -3 -5 11 -24 30 -43 53
-51 57 -61 35 -111 -10 -24 -22 -62 -25 -84 -6 -34 -3 -44 18 -69 14 -16 27
-27 30 -25 16 17 106 144 106 151 0 18 26 8 70 -26 25 -19 60 -45 77 -57 18
-13 33 -30 33 -39 0 -8 -25 -44 -56 -80 -71 -82 -87 -106 -79 -119 4 -6 15 0
28 17 11 15 35 44 51 63 17 20 42 50 55 68 13 18 27 32 31 32 18 0 170 -139
170 -156 0 -7 -9 -20 -21 -28 -13 -9 -18 -19 -14 -27 5 -7 4 -10 -2 -6 -10 7
-59 -43 -55 -56 1 -4 -4 -6 -10 -5 -7 2 -12 -3 -10 -10 1 -8 -1 -11 -6 -8 -4
3 -21 -9 -37 -26 -32 -34 -30 -42 32 -112 l33 -36 32 27 c17 16 61 55 96 88
87 82 86 81 123 40 17 -19 36 -32 42 -28 6 3 7 1 3 -5 -3 -6 8 -27 26 -48 l33
-37 -55 -49 c-30 -27 -54 -54 -53 -58 2 -5 -3 -7 -10 -5 -6 3 -25 -8 -42 -23
-16 -15 -40 -35 -52 -43 l-23 -16 41 -59 c23 -32 45 -63 49 -67 8 -9 90 40 90
54 0 5 4 9 10 9 5 0 40 23 78 50 38 28 73 50 78 50 8 -1 33 -36 91 -129 13
-20 23 -39 23 -42 0 -4 -58 -42 -130 -84 -71 -43 -130 -80 -130 -82 0 -3 18
-36 41 -74 l40 -70 97 52 c53 29 109 60 124 71 44 30 61 23 87 -37 13 -30 26
-53 30 -51 3 2 7 -11 8 -30 2 -25 -1 -34 -12 -34 -8 0 -15 -4 -15 -8 0 -4 -16
-14 -35 -21 -21 -7 -33 -17 -29 -23 5 -7 2 -8 -5 -3 -7 4 -23 2 -34 -3 -12 -6
-48 -22 -79 -36 -42 -18 -56 -29 -52 -40 6 -17 16 -13 173 60 51 24 99 44 106
44 12 0 65 -113 65 -139 0 -8 6 -11 15 -7 12 4 13 2 6 -13 -9 -15 -241 -111
-271 -111 -16 0 -12 -40 5 -46 8 -4 12 -10 9 -15 -9 -15 6 -50 18 -43 6 4 8 2
4 -4 -7 -11 13 -62 24 -62 4 0 27 7 51 16 102 36 220 63 225 51 2 -7 15 -55
28 -107 17 -69 21 -97 13 -101 -7 -4 -66 -19 -133 -35 l-121 -28 24 -66 c12
-36 23 -73 23 -82 0 -14 9 -18 43 -18 23 0 56 4 74 9 17 5 55 11 84 13 l53 3
13 -60 c6 -33 12 -79 13 -101 l0 -42 -110 -7 c-107 -7 -110 -8 -110 -31 0 -24
0 -24 88 -18 48 4 98 7 112 8 l25 1 3 -111 3 -110 -91 0 -92 1 7 -40 c3 -22 9
-62 12 -88 l6 -48 73 3 c43 2 75 -1 77 -7 2 -5 1 -52 -2 -102 -4 -58 -2 -94 4
-96 6 -2 1 -2 -10 0 -11 2 -44 6 -72 9 l-53 6 0 -100 0 -100 40 -7 c22 -4 42
-10 44 -14 5 -7 -8 -82 -24 -142 -10 -35 -13 -39 -35 -33 -25 6 -25 6 -25 -67
-1 -207 -53 -374 -210 -670 -33 -62 -60 -117 -60 -121 0 -4 -4 -8 -8 -8 -5 0
-14 -12 -20 -26 -17 -37 -139 -219 -157 -234 -8 -7 -15 -22 -15 -33 0 -11 -3
-18 -6 -14 -3 3 -33 -27 -66 -66 -33 -40 -91 -105 -129 -146 -60 -63 -68 -75
-57 -90 11 -14 11 -14 -3 -4 -13 11 -33 -3 -130 -90 -64 -57 -160 -137 -215
-178 -97 -74 -351 -239 -387 -252 -11 -4 -15 -12 -11 -18 4 -7 3 -9 -3 -6 -6
4 -69 -22 -139 -57 -213 -106 -466 -202 -636 -242 -42 -10 -75 -20 -73 -23 2
-3 -13 -6 -33 -6 -21 -1 -90 -7 -155 -14 -153 -16 -752 -18 -867 -2 -211 29
-471 99 -686 186 -48 19 -89 33 -92 31 -2 -3 -11 1 -19 9 -8 8 -23 15 -33 15
-10 0 -22 5 -25 10 -3 6 -15 10 -26 10 -10 0 -19 4 -19 9 0 5 -15 15 -34 21
-61 20 -306 157 -462 258 -100 64 -319 241 -412 331 -41 39 -78 71 -83 71 -6
0 -8 4 -4 9 3 5 -3 16 -12 23 -50 37 -223 253 -283 351 -17 30 -25 36 -32 25
-7 -10 -8 -9 -4 5 3 10 -8 39 -29 71 -36 57 -138 260 -169 336 -10 25 -46 127
-82 228 -57 163 -62 184 -46 190 9 3 111 36 227 72 230 72 234 75 201 138 -17
34 -10 45 34 55 14 3 50 13 80 22 76 23 240 66 271 72 24 5 27 1 49 -74 12
-43 26 -82 30 -88 4 -5 10 -20 13 -33 6 -24 -9 -33 -123 -73 -30 -11 -73 -28
-95 -38 -22 -10 -87 -35 -145 -56 -58 -21 -124 -46 -147 -57 -23 -10 -45 -18
-48 -18 -20 0 -245 -95 -243 -102 4 -12 6 -12 56 2 23 7 42 17 42 22 0 4 9 8
21 8 11 0 18 3 16 8 -3 4 6 8 19 8 13 1 43 11 66 22 44 21 454 182 463 182 2
0 28 11 57 24 82 36 88 37 81 19 -4 -11 -2 -14 5 -9 7 4 10 2 7 -6 -3 -8 11
-49 30 -92 34 -73 35 -79 19 -91 -22 -15 -358 -185 -367 -185 -4 0 -14 18 -23
40 -9 22 -23 40 -31 40 -8 0 -11 -5 -7 -12 4 -6 3 -8 -4 -4 -6 3 -57 -16 -114
-42 -57 -27 -130 -62 -163 -77 -33 -15 -62 -29 -64 -31 -2 -2 8 -19 23 -38 14
-19 26 -38 26 -41 0 -3 11 -21 25 -40 l26 -33 82 47 c45 26 119 67 165 91 49
25 81 48 78 55 -2 6 -1 17 4 24 8 14 14 18 117 71 38 19 108 56 156 82 48 27
90 48 92 48 3 0 22 -30 86 -137 l38 -63 -32 -24 c-18 -13 -98 -67 -180 -121
l-148 -97 -17 23 c-22 26 -16 28 -167 -70 -57 -37 -101 -72 -97 -76 4 -5 2 -5
-5 -2 -15 9 -43 -2 -43 -17 0 -6 20 -33 45 -61 25 -27 45 -53 45 -57 0 -16 25
-7 64 25 23 18 54 41 70 51 25 16 27 20 12 28 -9 5 -22 6 -29 2 -9 -5 -9 -4
-1 5 9 10 17 10 34 1 19 -10 28 -6 76 30 59 44 63 54 37 83 -20 21 -24 15 40
61 51 37 196 136 249 169 l57 37 65 -90 c36 -49 66 -93 66 -99 0 -5 -21 -26
-47 -47 -25 -22 -65 -55 -88 -74 -23 -19 -65 -55 -95 -80 -29 -25 -76 -58
-104 -74 -41 -23 -173 -129 -196 -157 -3 -3 -16 -12 -29 -19 l-25 -13 59 -52
59 -52 65 63 c36 35 69 64 74 64 4 0 5 5 1 12 -4 6 -3 8 3 5 5 -3 24 9 42 27
l32 33 -31 34 c-16 19 -30 37 -30 40 0 4 38 39 84 77 46 39 90 77 97 84 24 22
123 104 136 111 6 4 43 -26 89 -73 43 -44 84 -80 91 -80 6 0 15 -4 18 -10 4
-6 -1 -7 -12 -3 -10 3 -15 3 -11 -1 3 -4 -6 -20 -20 -35 -15 -15 -74 -78 -132
-141 -58 -62 -110 -118 -115 -124 -6 -6 -52 -55 -103 -109 -50 -53 -92 -102
-92 -108 0 -6 21 13 47 42 27 29 63 68 82 88 18 20 77 83 130 141 53 57 124
133 157 169 l61 64 89 -73 c49 -40 90 -76 92 -81 2 -5 -18 -36 -43 -69 -26
-34 -45 -63 -43 -66 3 -2 17 13 31 33 14 21 36 51 49 67 l24 28 48 -32 47 -32
17 23 c22 32 137 183 161 212 10 12 57 67 104 122 48 55 102 131 121 170 41
82 103 249 81 220 -74 -98 -128 -151 -160 -157 -24 -5 -26 -3 -23 26 2 17 16
54 30 81 29 56 61 155 83 260 13 61 48 385 42 391 -1 1 -27 -16 -58 -39 -112
-85 -176 -129 -246 -170 -69 -40 -163 -64 -208 -53 -20 5 -65 44 -132 114 -56
59 -104 105 -106 102 -3 -3 -10 -61 -16 -130 -10 -101 -57 -382 -76 -450 -2
-8 -10 -38 -18 -65 -19 -69 -34 -95 -56 -95 -35 0 -44 15 -223 360 -28 52 -63
119 -79 148 -16 28 -27 52 -24 52 3 0 -11 32 -30 70 -20 39 -44 92 -55 119
-10 27 -28 68 -38 92 -11 24 -31 73 -45 109 -15 38 -26 56 -27 43 0 -16 -6
-23 -20 -24 -11 -1 -24 -3 -30 -4 -5 -1 -19 -3 -30 -4 -11 0 -20 -8 -20 -16 0
-12 7 -14 27 -9 16 4 30 7 33 6 46 0 48 -3 55 -44 4 -24 14 -69 22 -102 8 -32
11 -62 6 -66 -4 -5 -44 -17 -88 -28 -44 -11 -132 -33 -196 -49 -84 -21 -120
-27 -132 -19 -11 7 -36 5 -84 -7 -37 -9 -120 -28 -183 -43 -63 -14 -133 -31
-155 -37 -22 -5 -44 -11 -48 -11 -11 -1 -44 127 -48 184 l-4 44 60 12 c33 7
92 18 130 25 39 6 76 17 84 23 12 8 13 8 7 -2 -8 -13 1 -12 84 9 19 5 50 9 67
9 26 0 36 6 48 30 9 17 20 28 25 25 13 -8 220 26 220 36 0 13 -67 11 -164 -6
-59 -10 -93 -12 -104 -5 -10 5 -12 10 -4 10 6 0 12 10 12 23 0 45 -8 47 -120
37 -207 -19 -306 -30 -341 -35 l-36 -6 -7 100 c-4 55 -5 104 -2 109 5 9 470
27 579 23 47 -2 57 1 57 14 0 16 -27 17 -317 14 l-318 -4 -3 95 c-4 147 -17
136 145 128 76 -3 184 -9 240 -13 l103 -6 0 46 c0 43 1 45 30 45 17 0 30 4 30
9 0 28 -64 42 -270 61 -151 14 -251 27 -257 34 -8 8 7 170 17 186 7 11 19 11
67 2 32 -6 103 -18 158 -27 55 -9 119 -21 142 -26 23 -5 57 -9 75 -9 l34 0 -4
73 c-4 101 -4 102 -32 104 -14 1 -97 20 -185 42 -88 22 -168 40 -178 41 -10 0
-20 7 -23 15 -6 15 22 152 35 173 4 8 44 -1 116 -23 61 -19 117 -33 125 -29 8
3 11 2 7 -3 -5 -4 25 -18 65 -30 40 -12 74 -20 76 -18 2 2 7 42 11 89 6 77 5
87 -11 92 -10 3 -28 2 -41 -1 -13 -4 -17 -3 -10 2 11 8 -27 25 -227 99 -27 10
-35 18 -33 36 2 29 55 148 66 148 4 0 72 -29 151 -65 79 -36 146 -65 150 -65
3 0 6 6 6 13 0 18 -74 52 -91 42 -7 -5 -10 -4 -6 2 6 9 -158 91 -173 86 -3 0
-10 5 -17 12 -9 10 -4 30 27 94 22 45 42 81 45 81 3 0 64 -32 136 -71 72 -39
132 -69 133 -67 1 1 17 41 34 88 28 76 30 86 17 100 -14 13 -17 13 -26 0 -9
-13 -10 -13 -6 0 3 12 -70 70 -89 70 -4 0 -24 14 -46 31 -33 27 -38 36 -33 58
4 14 10 28 14 31 15 10 74 104 74 117 0 18 32 17 47 -2 7 -8 19 -15 26 -15 8
0 14 -4 14 -8 0 -10 51 -37 63 -33 5 1 6 -2 4 -6 -3 -5 12 -21 33 -36 l39 -28
12 23 c16 32 71 88 85 88 31 0 21 22 -28 60 -29 23 -63 50 -75 61 -13 10 -23
17 -23 14 0 -2 -11 7 -25 21 -14 14 -25 29 -25 34 0 10 122 150 131 150 3 0
36 -27 72 -60 36 -33 68 -60 71 -60 18 0 -1 28 -54 83 -33 34 -60 64 -60 67 0
4 32 37 71 74 39 38 72 78 75 89 2 11 6 22 10 26 3 3 4 -1 2 -10 -1 -9 16 -37
39 -62 l42 -46 51 76 c46 69 49 77 35 93 -8 9 -15 22 -15 29 0 14 48 58 73 67
11 3 44 59 84 142 36 76 101 208 145 295 43 87 76 163 72 169 -4 6 -3 8 3 5 5
-3 26 28 46 68 29 59 40 73 53 68 13 -5 15 -3 9 7 -5 9 -4 11 4 6 6 -4 9 -11
6 -16 -3 -5 37 -22 87 -39 51 -16 192 -65 313 -107 195 -69 228 -78 290 -78
39 0 86 5 105 12 19 6 80 22 135 37 55 14 116 32 136 39 97 38 768 380 762
389 -3 6 -1 7 5 3 15 -9 144 52 137 64 -3 6 1 7 9 4 8 -3 36 6 63 20 58 31 68
32 90 6z m-1477 -534 c0 -2 -7 -7 -16 -10 -8 -3 -12 -2 -9 4 6 10 25 14 25 6z
m2575 -466 c-3 -5 -12 -10 -18 -10 -7 0 -6 4 3 10 19 12 23 12 15 0z m-3641
-32 c-5 -8 -1 -9 12 -4 14 5 16 4 7 -5 -13 -13 -37 -3 -28 12 4 5 8 9 11 9 3
0 2 -5 -2 -12z m-145 -179 c-15 -9 -32 -2 -24 11 3 5 13 6 21 3 12 -4 13 -8 3
-14z m4291 -219 c0 -5 -4 -10 -10 -10 -5 0 -10 5 -10 10 0 6 5 10 10 10 6 0
10 -4 10 -10z m-206 -91 c-6 -11 -24 -2 -24 11 0 5 7 7 15 4 8 -4 12 -10 9
-15z m-21 -94 c-3 -9 -8 -14 -10 -11 -3 3 -2 9 2 15 9 16 15 13 8 -4z m-4466
-127 c-3 -8 -6 -5 -6 6 -1 11 2 17 5 13 3 -3 4 -12 1 -19z m-82 -36 c-3 -3
-11 0 -18 7 -9 10 -8 11 6 5 10 -3 15 -9 12 -12z m5025 8 c0 -5 -5 -10 -11
-10 -5 0 -7 5 -4 10 3 6 8 10 11 10 2 0 4 -4 4 -10z m130 -220 c0 -5 -5 -10
-11 -10 -5 0 -7 5 -4 10 3 6 8 10 11 10 2 0 4 -4 4 -10z m-65 -70 c-3 -5 -14
-10 -23 -9 -14 0 -13 2 3 9 27 11 27 11 20 0z m-5485 -255 c11 -13 10 -14 -6
-8 -17 6 -18 5 -4 -13 14 -17 14 -18 -2 -6 -9 8 -14 20 -11 28 6 18 8 17 23
-1z m72 -287 c-9 -9 -15 -9 -24 0 -9 9 -7 12 12 12 19 0 21 -3 12 -12z m-112
-23 c0 -8 -7 -15 -15 -15 -16 0 -20 12 -8 23 11 12 23 8 23 -8z m217 -111 c-3
-3 -12 -4 -19 -1 -8 3 -5 6 6 6 11 1 17 -2 13 -5z m5770 -216 c-3 -8 -6 -5 -6
6 -1 11 2 17 5 13 3 -3 4 -12 1 -19z m30 -190 c-3 -8 -6 -5 -6 6 -1 11 2 17 5
13 3 -3 4 -12 1 -19z m-6089 -195 c-10 -2 -28 -2 -40 0 -13 2 -5 4 17 4 22 1
32 -1 23 -4z m259 -9 c-3 -3 -12 -4 -19 -1 -8 3 -5 6 6 6 11 1 17 -2 13 -5z
m33 -654 c8 -5 11 -10 5 -10 -5 0 -17 5 -25 10 -8 5 -10 10 -5 10 6 0 17 -5
25 -10z m1230 -220 c0 -5 -5 -10 -11 -10 -5 0 -7 5 -4 10 3 6 8 10 11 10 2 0
4 -4 4 -10z m-612 -45 c-3 -3 -9 2 -12 12 -6 14 -5 15 5 6 7 -7 10 -15 7 -18z
m1109 -34 c0 -11 -7 -17 -14 -14 -9 4 -9 8 0 19 16 17 16 17 14 -5z m-2115
-23 c-8 -8 -9 -4 -5 13 4 13 8 18 11 10 2 -7 -1 -18 -6 -23z m435 26 c-3 -3
-12 -4 -19 -1 -8 3 -5 6 6 6 11 1 17 -2 13 -5z m-420 -66 c-3 -8 -6 -5 -6 6
-1 11 2 17 5 13 3 -3 4 -12 1 -19z m6083 -28 c0 -5 -5 -10 -11 -10 -5 0 -7 5
-4 10 3 6 8 10 11 10 2 0 4 -4 4 -10z m-5873 -16 c-3 -3 -12 -4 -19 -1 -8 3
-5 6 6 6 11 1 17 -2 13 -5z m100 -20 c-3 -3 -12 -4 -19 -1 -8 3 -5 6 6 6 11 1
17 -2 13 -5z m1903 -164 c0 -5 -2 -10 -4 -10 -3 0 -8 5 -11 10 -3 6 -1 10 4
10 6 0 11 -4 11 -10z m-1066 -16 c3 -8 2 -12 -4 -9 -6 3 -10 10 -10 16 0 14 7
11 14 -7z m-1005 -144 c0 -10 -3 -8 -9 5 -12 27 -12 43 0 25 5 -8 9 -22 9 -30z
m1175 -76 c3 -8 2 -12 -4 -9 -6 3 -10 10 -10 16 0 14 7 11 14 -7z m146 -38 c0
-3 -4 -8 -10 -11 -5 -3 -10 -1 -10 4 0 6 5 11 10 11 6 0 10 -2 10 -4z m-1042
-71 c-9 -9 -30 14 -23 25 6 9 10 8 17 -4 6 -10 8 -19 6 -21z m1625 -200 c-3
-9 -8 -14 -10 -11 -3 3 -2 9 2 15 9 16 15 13 8 -4z m-433 -69 c0 -3 -4 -8 -10
-11 -5 -3 -10 -1 -10 4 0 6 5 11 10 11 6 0 10 -2 10 -4z m-537 -171 c-3 -9 -8
-14 -10 -11 -3 3 -2 9 2 15 9 16 15 13 8 -4z m-67 -67 c5 4 2 -1 -5 -11 -8 -9
-14 -16 -15 -15 -1 2 -8 12 -16 22 -14 18 -14 19 6 8 12 -6 25 -8 30 -4z m354
-822 c0 -3 -4 -8 -10 -11 -5 -3 -10 -1 -10 4 0 6 5 11 10 11 6 0 10 -2 10 -4z"/>
<path d="M3792 6728 c-34 -17 -61 -33 -58 -35 2 -2 32 10 66 27 60 31 63 31
83 13 l22 -18 -19 23 c-11 12 -22 22 -25 21 -3 0 -34 -14 -69 -31z"/>
<path d="M3940 6675 c19 -19 36 -35 39 -35 3 0 -10 16 -29 35 -19 19 -36 35
-39 35 -3 0 10 -16 29 -35z"/>
<path d="M3690 6675 c-14 -8 -20 -14 -14 -15 5 0 19 7 30 15 24 18 16 19 -16
0z"/>
<path d="M3624 6644 c-18 -14 -18 -14 6 -3 31 14 36 19 24 19 -6 0 -19 -7 -30
-16z"/>
<path d="M3548 6609 c-21 -11 -38 -22 -38 -24 0 -5 79 32 89 41 12 11 -18 1
-51 -17z"/>
<path d="M4020 6595 c19 -19 36 -35 39 -35 3 0 -10 16 -29 35 -19 19 -36 35
-39 35 -3 0 10 -16 29 -35z"/>
<path d="M3525 6466 c-428 -220 -520 -268 -527 -275 -12 -11 21 -51 37 -45 8
4 12 11 8 17 -3 6 -1 7 5 3 10 -6 336 154 377 184 13 9 300 160 343 179 25 12
32 21 32 43 0 15 -3 28 -7 27 -5 0 -125 -60 -268 -133z"/>
<path d="M3870 6559 c0 -28 7 -43 33 -66 17 -16 97 -98 176 -182 105 -110 147
-148 154 -139 6 9 7 7 3 -6 -8 -23 91 -123 178 -182 91 -61 99 -66 157 -113
36 -30 17 -7 -57 70 -61 63 -155 160 -209 216 -54 56 -103 99 -108 96 -6 -3
-7 -2 -4 4 3 5 -68 83 -159 174 l-164 164 0 -36z"/>
<path d="M3450 6560 c-19 -11 -30 -19 -25 -19 6 0 26 8 45 19 19 11 31 19 25
19 -5 0 -26 -8 -45 -19z"/>
<path d="M4131 6481 c35 -37 71 -71 79 -75 8 -4 -19 27 -60 68 -41 42 -77 76
-79 76 -2 0 24 -31 60 -69z"/>
<path d="M3390 6530 c-9 -6 -10 -10 -3 -10 6 0 15 5 18 10 8 12 4 12 -15 0z"/>
<path d="M3330 6500 c-9 -6 -10 -10 -3 -10 6 0 15 5 18 10 8 12 4 12 -15 0z"/>
<path d="M3145 6410 c-3 -6 1 -7 9 -4 18 7 21 14 7 14 -6 0 -13 -4 -16 -10z"/>
<path d="M3765 6406 c-24 -16 -96 -56 -195 -108 -41 -22 -76 -41 -78 -43 -1
-1 32 -15 75 -31 43 -16 81 -30 85 -32 4 -2 12 17 19 41 10 41 14 45 45 49 19
2 34 0 34 -4 0 -4 3 -7 8 -6 16 4 108 -15 120 -25 7 -6 11 -16 8 -23 -3 -9 11
-13 48 -16 l53 -3 -16 22 c-9 12 -21 21 -27 19 -6 -3 -11 1 -10 8 1 12 -132
166 -144 166 -3 0 -14 -6 -25 -14z"/>
<path d="M3070 6375 c-14 -8 -20 -14 -14 -15 5 0 19 7 30 15 24 18 16 19 -16
0z"/>
<path d="M4250 6365 c41 -48 50 -57 50 -48 0 5 -17 25 -37 44 -33 29 -34 30
-13 4z"/>
<path d="M1731 6329 c-28 -51 -185 -356 -263 -511 -54 -107 -59 -131 -12 -57
63 100 306 578 302 596 -2 10 -12 0 -27 -28z"/>
<path d="M1985 6320 c27 -12 43 -12 25 0 -8 5 -22 9 -30 9 -10 0 -8 -3 5 -9z"/>
<path d="M2031 6307 c8 -10 181 -69 186 -63 2 2 -33 16 -79 31 -46 16 -90 30
-98 33 -8 3 -12 2 -9 -1z"/>
<path d="M4310 6307 c0 -7 36 -45 268 -282 113 -115 203 -204 201 -198 -5 12
-469 488 -469 480z"/>
<path d="M2863 6273 c-8 -3 -13 -23 -13 -51 0 -45 4 -51 86 -137 47 -49 108
-116 136 -148 38 -42 54 -54 61 -45 6 10 7 9 4 -3 -6 -18 57 -87 65 -72 3 4 3
2 1 -5 -1 -8 3 -19 10 -26 6 -7 34 -36 60 -65 27 -28 53 -48 59 -45 7 4 8 2 4
-4 -7 -12 328 -382 345 -382 5 0 9 -4 9 -10 0 -5 27 -38 60 -72 33 -35 60 -66
60 -70 0 -5 4 -8 9 -8 5 0 7 16 5 37 -3 27 -18 51 -58 92 -29 31 -79 84 -111
118 -50 54 -60 61 -74 50 -14 -11 -14 -10 -2 6 14 17 -20 58 -261 312 -31 33
-65 70 -75 81 -76 88 -187 203 -193 199 -4 -3 -7 1 -6 9 0 8 -30 47 -69 88
-120 126 -120 125 -105 143 13 16 13 16 -7 8z"/>
<path d="M1880 6245 c7 -8 17 -15 22 -15 6 0 56 -18 113 -41 56 -22 113 -39
126 -37 14 2 -27 22 -119 56 -77 28 -144 52 -148 52 -3 0 -1 -7 6 -15z"/>
<path d="M1793 6188 c-12 -24 -34 -62 -48 -85 -14 -24 -22 -43 -17 -43 5 0 14
10 20 23 6 12 27 50 46 85 20 34 32 62 28 62 -4 0 -18 -19 -29 -42z"/>
<path d="M2261 6226 c4 -4 21 -11 39 -16 19 -5 29 -6 24 -1 -10 10 -72 26 -63
17z"/>
<path d="M2625 6188 c-55 -4 -147 -17 -204 -28 -124 -26 -317 -92 -314 -108 2
-6 -4 -9 -12 -6 -19 8 -206 -87 -198 -99 3 -6 1 -7 -4 -4 -19 12 -230 -126
-321 -208 -19 -16 -40 -34 -48 -38 -8 -5 -12 -12 -9 -18 4 -5 0 -9 -8 -9 -19
0 -59 -44 -50 -55 5 -4 3 -5 -4 -1 -6 3 -15 0 -20 -8 -4 -8 -23 -31 -42 -51
-48 -53 -182 -256 -175 -266 3 -5 1 -9 -4 -9 -13 0 -91 -181 -92 -213 0 -10
85 -5 270 17 160 18 200 14 200 -20 0 -22 -4 -24 -52 -24 -55 -1 -160 -13
-238 -29 -134 -26 -267 -53 -283 -57 -17 -5 -53 -61 -49 -76 1 -5 -2 -8 -6 -8
-5 0 -21 -22 -36 -49 l-27 -50 81 40 c122 59 145 67 210 75 57 6 60 5 60 -15
0 -17 -21 -31 -112 -74 -122 -58 -165 -91 -193 -150 -16 -33 -17 -57 -12 -185
5 -144 20 -221 70 -384 23 -75 100 -228 110 -221 6 3 7 1 4 -4 -7 -12 80 -138
155 -224 51 -59 64 -101 28 -94 -41 8 -125 85 -210 195 -24 30 -47 54 -52 52
-5 -1 -7 2 -4 7 3 5 -9 36 -28 70 -19 33 -37 69 -41 81 -4 11 -11 17 -17 14
-7 -5 -9 -2 -6 8 4 8 0 28 -7 44 -22 46 -52 142 -71 229 -14 60 -18 124 -19
252 0 94 -1 171 -1 170 -9 -12 -82 -238 -104 -322 -73 -281 -77 -642 -11 -920
39 -161 54 -222 60 -232 3 -6 4 72 3 175 -7 350 41 652 103 652 21 0 31 -47
40 -180 7 -111 35 -287 79 -500 14 -68 84 -318 95 -335 3 -5 6 -15 7 -21 1 -7
15 -46 30 -88 19 -50 31 -71 37 -63 5 7 6 1 2 -16 -4 -21 -3 -27 6 -21 8 5 10
2 6 -8 -3 -9 0 -26 7 -39 6 -13 22 -50 35 -82 18 -43 26 -55 33 -45 7 9 8 8 4
-5 -4 -12 30 -92 96 -225 56 -114 102 -209 102 -212 4 -16 32 -70 37 -70 3 0
10 19 16 43 6 23 24 94 41 157 25 99 40 178 68 366 4 27 8 31 27 27 19 -5 18
-2 -11 30 -19 19 -35 47 -35 61 -2 21 -7 26 -30 26 -34 0 -87 48 -87 79 0 12
-5 21 -11 21 -6 0 -9 7 -5 15 8 23 -32 61 -124 118 -47 29 -91 65 -100 80 -14
26 -13 31 23 100 38 73 57 146 57 223 0 23 3 45 8 48 14 8 67 -21 112 -62 25
-23 51 -42 59 -42 8 0 11 -3 8 -6 -7 -7 87 -87 99 -84 4 1 10 -2 13 -7 3 -4
17 -17 30 -28 14 -11 0 10 -29 48 -39 49 -56 64 -63 55 -6 -9 -7 -8 -3 4 2 9
-6 33 -20 53 -34 50 -64 111 -64 130 0 18 41 20 71 4 25 -13 55 5 118 70 110
116 86 133 -41 29 -57 -47 -127 -79 -156 -71 -26 6 -37 39 -24 74 9 21 7 25
-10 26 -28 2 -37 17 -87 143 -38 96 -46 110 -67 110 -33 0 -39 18 -15 44 12
12 18 26 14 31 -5 4 -3 5 3 2 7 -4 17 0 24 8 10 12 9 15 -3 15 -9 0 -21 8 -26
18 -17 32 -42 186 -45 287 -5 111 -1 131 20 114 7 -6 19 -9 26 -7 7 3 17 1 23
-4 48 -39 173 -134 230 -173 39 -27 76 -55 83 -62 7 -7 17 -13 22 -13 5 0 15
-6 22 -13 7 -7 29 -23 49 -35 20 -12 53 -35 74 -52 20 -16 42 -27 48 -23 5 3
7 2 4 -4 -9 -15 49 -67 64 -58 8 6 10 4 4 -4 -4 -8 6 -25 27 -44 39 -37 158
-174 173 -199 49 -83 160 -236 168 -231 6 3 7 1 3 -5 -8 -13 7 -44 61 -128 60
-94 62 -98 73 -119 27 -55 59 -100 70 -97 6 1 9 -2 5 -8 -4 -6 6 -32 21 -58
l29 -47 11 75 c7 41 14 109 16 152 1 42 6 74 9 72 10 -6 20 364 14 517 -9 217
-43 508 -75 630 -26 100 -29 114 -29 119 0 3 -12 37 -26 75 -51 137 -154 281
-191 269 -14 -4 -15 -3 -6 3 18 13 1 26 -71 53 -60 23 -87 50 -87 87 0 20 5
23 41 23 81 0 168 -66 252 -190 39 -58 124 -140 146 -140 9 0 38 14 64 30 26
17 50 30 53 30 13 0 63 44 58 51 -3 5 1 6 8 4 8 -3 23 3 33 13 11 10 41 32 67
50 26 18 47 38 45 45 -1 7 5 11 14 9 21 -3 244 212 235 227 -4 6 -2 19 4 28 9
16 10 15 5 -4 -4 -14 -2 -23 4 -23 6 0 11 3 11 8 0 4 10 18 23 32 12 14 32 39
44 56 l22 31 -23 22 -22 21 -60 -28 c-32 -16 -92 -44 -131 -62 -40 -18 -70
-37 -67 -41 3 -5 -1 -6 -9 -3 -13 5 -45 -9 -254 -107 -117 -55 -169 -52 -203
11 -13 25 -9 26 90 40 59 8 124 27 210 62 108 43 367 162 379 174 3 2 -8 18
-24 34 -22 23 -31 27 -38 18 -6 -9 -7 -8 -3 5 4 12 -7 30 -32 56 -167 174
-250 269 -265 302 -13 29 -23 39 -35 35 -9 -2 -46 -7 -82 -11 -143 -14 -378
-68 -442 -101 -14 -8 -32 -14 -38 -14 -23 0 -183 -83 -267 -137 -65 -43 -89
-65 -115 -108 -28 -47 -37 -55 -63 -55 -68 1 -89 62 -35 102 22 16 27 24 18
31 -9 5 -6 6 7 3 11 -3 33 3 50 14 17 11 39 25 50 32 11 7 38 25 60 39 109 72
267 144 425 196 93 30 355 87 435 95 l30 3 0 75 0 74 -30 6 c-16 3 -75 2 -130
-2z m-220 -198 c-3 -5 -12 -10 -18 -10 -7 0 -6 4 3 10 19 12 23 12 15 0z
m-430 -160 c-3 -5 -12 -10 -18 -10 -7 0 -6 4 3 10 19 12 23 12 15 0z m250 -40
c3 -5 1 -10 -4 -10 -6 0 -11 5 -11 10 0 6 2 10 4 10 3 0 8 -4 11 -10z m-365
-34 c0 -11 -19 -15 -25 -6 -3 5 1 10 9 10 9 0 16 -2 16 -4z m1055 -65 c-6 -5
-25 10 -25 20 0 5 6 4 14 -3 8 -7 12 -15 11 -17z m-1405 -34 c0 -2 -10 -12
-22 -23 l-23 -19 19 23 c18 21 26 27 26 19z m564 -9 c-3 -4 -9 -8 -15 -8 -5 0
-9 4 -9 8 0 5 7 9 15 9 8 0 12 -4 9 -9z m926 -446 c0 -4 -9 -13 -20 -20 -23
-14 -26 -8 -7 13 13 16 27 19 27 7z m-890 -12 c0 -5 -7 -10 -15 -10 -8 0 -15
5 -15 10 0 6 7 10 15 10 8 0 15 -4 15 -10z m77 4 c-3 -3 -12 -4 -19 -1 -8 3
-5 6 6 6 11 1 17 -2 13 -5z m263 -10 c0 -8 -5 -12 -10 -9 -6 4 -8 11 -5 16 9
14 15 11 15 -7z m-660 -63 c14 -7 43 -35 65 -63 22 -27 46 -56 53 -64 7 -7 37
-54 66 -104 29 -49 57 -86 61 -82 5 4 5 2 1 -5 -3 -7 5 -34 18 -60 29 -54 106
-227 106 -237 0 -3 11 -29 24 -58 13 -29 31 -70 40 -91 8 -21 20 -36 26 -32 6
4 7 -1 3 -11 -4 -12 -3 -15 5 -10 8 5 10 2 6 -8 -3 -9 -1 -16 5 -16 7 0 11 -6
10 -12 -1 -7 3 -25 8 -39 21 -49 20 -117 -2 -125 -9 -4 -29 -1 -45 6 -29 12
-40 41 -54 145 -15 110 -142 357 -288 564 -55 77 -277 289 -289 276 -3 -2 -6
7 -7 20 -1 21 3 24 41 27 52 4 114 -5 147 -21z m129 -65 c1 -5 -5 -3 -13 4 -8
6 -12 19 -9 27 6 14 8 14 14 -3 4 -10 8 -23 8 -28z m-305 -91 c-5 -11 -9 -12
-19 -2 -9 8 -10 14 -2 19 16 9 27 0 21 -17z m837 -27 c11 -21 11 -22 -4 -9
-10 7 -17 17 -17 22 0 15 9 10 21 -13z m-1410 -13 c0 -6 -10 -12 -23 -13 -19
-4 -20 -2 -9 12 15 17 33 18 32 1z m1219 -49 c0 -8 -4 -18 -10 -21 -5 -3 -10
3 -10 14 0 12 5 21 10 21 6 0 10 -6 10 -14z m-1177 -187 c7 0 3 -4 -8 -9 -29
-13 -35 -12 -35 6 0 11 5 14 16 10 9 -3 21 -6 27 -7z m852 -118 c3 -5 1 -12
-5 -16 -5 -3 -10 1 -10 9 0 18 6 21 15 7z m266 -104 c-10 -9 -11 -8 -5 6 3 10
9 15 12 12 3 -3 0 -11 -7 -18z m259 -91 c0 -19 -4 -38 -10 -41 -6 -4 -10 10
-10 34 0 23 5 41 10 41 6 0 10 -15 10 -34z m-366 -53 c-10 -40 -14 -41 -14 -5
0 18 5 32 10 32 6 0 8 -11 4 -27z m-1317 -25 c-3 -8 -6 -5 -6 6 -1 11 2 17 5
13 3 -3 4 -12 1 -19z m460 -85 c-3 -10 -5 -4 -5 12 0 17 2 24 5 18 2 -7 2 -21
0 -30z m473 33 c0 -2 -9 -6 -20 -9 -11 -3 -18 -1 -14 4 5 9 34 13 34 5z m463
-91 c-3 -9 -8 -14 -10 -11 -3 3 -2 9 2 15 9 16 15 13 8 -4z m-313 -55 c0 -5
-2 -10 -4 -10 -3 0 -8 5 -11 10 -3 6 -1 10 4 10 6 0 11 -4 11 -10z m-1015
-101 c11 -16 1 -19 -13 -3 -7 8 -8 14 -3 14 5 0 13 -5 16 -11z m1150 -10 c11
-16 1 -19 -13 -3 -7 8 -8 14 -3 14 5 0 13 -5 16 -11z m-1178 -21 c-3 -8 -6 -5
-6 6 -1 11 2 17 5 13 3 -3 4 -12 1 -19z m490 -90 c-3 -8 -6 -5 -6 6 -1 11 2
17 5 13 3 -3 4 -12 1 -19z m850 -90 c-3 -8 -6 -5 -6 6 -1 11 2 17 5 13 3 -3 4
-12 1 -19z m145 -200 c-2 -10 -6 -18 -8 -18 -2 0 -8 8 -13 18 -7 14 -6 18 8
18 12 0 17 -6 13 -18z m15 -22 c-3 -7 -1 -18 4 -23 7 -7 5 -12 -6 -17 -9 -3
-13 -2 -10 3 3 5 1 12 -5 16 -6 4 -5 11 3 20 16 18 21 19 14 1z m-1100 -378
c-3 -8 -6 -5 -6 6 -1 11 2 17 5 13 3 -3 4 -12 1 -19z m-100 -80 c-3 -7 -5 -2
-5 12 0 14 2 19 5 13 2 -7 2 -19 0 -25z m129 -45 c-10 -26 -18 -8 -9 23 5 21
8 24 11 11 2 -10 1 -25 -2 -34z m247 -238 c-7 -21 -13 -19 -13 6 0 11 4 18 10
14 5 -3 7 -12 3 -20z"/>
<path d="M3360 6185 c-19 -10 -21 -15 -10 -18 8 -3 44 -15 80 -27 36 -12 73
-23 82 -23 9 -1 15 -4 12 -8 -2 -3 18 -15 44 -25 26 -11 50 -21 54 -22 5 -2 5
3 2 12 -9 23 -103 88 -130 90 -12 0 -20 4 -18 8 5 7 -51 28 -75 28 -9 -1 -27
-7 -41 -15z"/>
<path d="M1856 6135 c-14 -24 -26 -46 -26 -49 0 -3 -16 -30 -35 -60 l-35 -55
43 19 c23 11 41 25 39 31 -1 6 2 8 7 4 6 -3 30 4 53 16 24 12 68 32 98 45 l55
23 -38 16 c-21 8 -60 24 -87 35 l-49 19 -25 -44z"/>
<path d="M3845 6131 c-74 -42 -133 -103 -141 -145 -8 -44 2 -90 18 -80 7 4 8
3 4 -5 -10 -15 58 -99 90 -111 13 -5 24 -12 24 -15 0 -4 -6 -3 -12 1 -7 3 12
-15 42 -42 30 -27 59 -47 65 -46 5 2 7 0 3 -3 -4 -4 23 -35 59 -69 69 -64 203
-200 268 -273 20 -24 42 -40 48 -36 5 3 8 2 4 -3 -3 -5 15 -32 39 -59 l45 -50
-59 115 c-118 230 -268 475 -341 558 -16 17 -49 41 -75 53 -29 13 -52 31 -62
51 -9 16 -11 27 -6 24 6 -4 13 -2 17 4 9 14 45 12 79 -5 15 -8 32 -12 37 -9 5
3 8 2 7 -3 -2 -4 16 -27 39 -50 23 -23 54 -60 68 -83 27 -42 38 -51 29 -22 -5
14 -4 14 4 2 6 -8 9 -18 6 -22 -7 -11 15 -50 25 -44 4 3 8 0 8 -7 0 -21 35
-67 46 -60 6 3 7 1 3 -6 -4 -6 0 -24 10 -39 10 -15 27 -43 38 -62 10 -19 21
-37 25 -40 19 -15 199 -368 269 -525 52 -118 98 -235 142 -360 23 -66 46 -129
50 -140 17 -40 60 -185 60 -200 0 -8 5 -15 11 -15 5 0 8 -4 5 -8 -2 -4 4 -39
15 -77 11 -39 24 -88 29 -110 5 -22 16 -71 25 -110 45 -200 52 -237 61 -349 9
-95 17 -82 40 63 25 160 30 400 10 527 -28 184 -89 410 -107 399 -5 -4 -6 0
-3 8 6 16 -42 130 -92 219 -18 31 -35 66 -38 76 -8 25 -81 76 -96 67 -6 -3
-10 -3 -9 2 1 4 -1 21 -6 36 -15 56 42 74 91 30 11 -10 35 -42 53 -71 29 -46
36 -51 50 -40 14 11 14 11 4 -3 -11 -13 -7 -28 19 -82 18 -37 36 -67 40 -67 8
0 -40 141 -84 248 -16 39 -34 70 -39 66 -5 -3 -6 1 -3 9 3 8 -3 30 -14 48 -10
19 -24 45 -31 58 -11 19 -15 21 -23 10 -7 -10 -8 -9 -4 6 7 23 -46 109 -59 98
-4 -5 -5 -2 -1 5 11 18 -95 153 -155 199 -27 20 -52 45 -55 56 -8 27 14 47 52
47 26 0 39 -7 61 -36 15 -20 51 -64 78 -96 28 -33 70 -86 94 -117 24 -31 48
-55 53 -53 5 1 7 -2 4 -7 -4 -6 13 -45 37 -88 52 -96 84 -162 93 -197 3 -14
10 -26 16 -26 5 0 6 -5 3 -10 -4 -6 -2 -16 3 -23 5 -7 12 -21 15 -32 3 -11 17
-58 32 -105 28 -91 32 -109 63 -270 40 -208 47 -291 47 -540 0 -230 -3 -276
-36 -495 -25 -163 -111 -472 -156 -558 -8 -16 -12 -31 -9 -34 2 -3 0 -10 -5
-17 -27 -31 -127 -252 -119 -260 6 -6 10 -14 10 -20 0 -5 -6 -2 -13 8 -11 15
-19 7 -69 -71 -32 -48 -78 -110 -102 -138 -25 -27 -46 -54 -46 -60 0 -5 4 -4
9 3 6 11 10 10 19 -1 9 -11 7 -13 -11 -12 -15 2 -45 -19 -97 -69 -41 -39 -97
-90 -125 -114 -27 -23 -45 -42 -40 -42 19 0 190 93 255 137 122 85 255 206
245 223 -3 6 1 7 9 4 9 -3 16 -2 16 3 0 5 8 18 18 29 74 79 245 346 245 381 0
7 4 13 8 13 4 0 17 26 30 58 12 31 30 80 41 107 30 77 68 198 68 216 0 8 7 35
15 60 8 24 16 64 19 89 2 25 10 86 16 135 7 50 10 151 8 225 -4 124 -6 139
-31 185 -29 53 -34 80 -17 90 6 4 8 11 5 16 -3 5 0 7 7 5 7 -3 25 -7 40 -10
35 -8 47 -31 63 -125 7 -42 22 -119 33 -171 46 -209 57 -346 57 -690 0 -306
-7 -422 -39 -630 -6 -35 -53 -247 -66 -295 -5 -22 -14 -58 -19 -80 -5 -22 -17
-59 -25 -83 -9 -24 -18 -51 -20 -60 -1 -9 -7 -26 -11 -37 -43 -108 -55 -140
-55 -146 0 -22 -162 -352 -187 -381 -9 -10 -12 -25 -8 -40 4 -15 3 -18 -3 -10
-6 9 -19 -3 -45 -44 -20 -31 -37 -60 -37 -64 0 -5 -3 -10 -7 -12 -5 -1 -37
-41 -72 -88 -58 -78 -111 -140 -195 -230 -28 -30 -76 -74 -187 -171 -10 -9
-15 -20 -11 -24 4 -5 2 -5 -4 -2 -13 7 -130 -79 -127 -93 1 -4 -5 -7 -15 -6
-9 0 -16 -4 -15 -11 2 -7 -3 -10 -11 -7 -7 3 -19 -2 -26 -11 -7 -8 -16 -15
-21 -15 -5 0 -28 -12 -51 -27 -77 -48 -365 -188 -381 -184 -4 0 -20 -5 -35
-13 -24 -12 -133 -45 -297 -90 -184 -51 -479 -86 -746 -88 -109 -1 -196 -5
-194 -9 4 -6 111 -32 145 -35 8 -1 22 -4 30 -7 81 -30 378 -45 545 -29 111 12
312 57 420 95 98 34 157 62 148 71 -4 4 0 4 8 1 20 -8 260 115 336 171 17 13
34 24 38 24 8 0 242 171 285 208 19 17 73 63 120 104 95 82 101 88 93 102 -3
5 -1 6 5 2 15 -9 84 54 78 70 -3 8 1 11 9 8 8 -3 64 50 144 138 220 243 431
522 415 550 -4 7 -4 10 1 6 10 -9 26 8 51 52 10 19 21 37 24 40 11 11 146 274
177 345 44 99 73 187 67 197 -4 6 -3 8 3 5 18 -11 93 277 123 469 39 257 21
636 -40 849 -4 17 -11 46 -15 65 -13 63 -81 258 -97 277 -6 7 -8 13 -5 13 6 0
-7 34 -52 133 -11 26 -30 68 -42 95 -55 122 -81 172 -89 167 -6 -3 -7 1 -4 9
3 8 -1 28 -10 43 -8 15 -33 66 -55 113 -64 141 -183 385 -190 390 -3 3 -21 38
-40 78 -19 39 -38 72 -43 72 -4 0 -8 4 -8 9 0 17 -67 111 -74 104 -4 -4 -4 0
-1 8 3 9 -3 23 -15 34 -11 10 -20 23 -20 30 0 7 -11 24 -25 39 -14 15 -25 30
-25 33 0 14 -143 178 -235 268 -129 128 -312 270 -450 350 -126 73 -346 175
-376 175 -8 0 -37 -13 -64 -29z m162 -37 c-3 -3 -12 -4 -19 -1 -8 3 -5 6 6 6
11 1 17 -2 13 -5z m173 -154 c0 -5 -4 -10 -10 -10 -5 0 -10 5 -10 10 0 6 5 10
10 10 6 0 10 -4 10 -10z m-423 -42 c-3 -7 -5 -2 -5 12 0 14 2 19 5 13 2 -7 2
-19 0 -25z m203 -32 c0 -2 -9 -6 -20 -9 -11 -3 -18 -1 -14 4 5 9 34 13 34 5z
m447 -2 c-3 -3 -12 -4 -19 -1 -8 3 -5 6 6 6 11 1 17 -2 13 -5z m-569 -35 c3
-11 1 -11 -8 1 -9 11 -13 12 -17 3 -2 -7 -9 -13 -15 -13 -6 0 -5 6 2 15 15 18
32 15 38 -6z m502 0 c0 -5 -4 -9 -10 -9 -5 0 -10 7 -10 16 0 8 5 12 10 9 6 -3
10 -10 10 -16z m60 -59 c0 -5 -2 -10 -4 -10 -3 0 -8 5 -11 10 -3 6 -1 10 4 10
6 0 11 -4 11 -10z m34 -146 c3 -8 2 -12 -4 -9 -6 3 -10 10 -10 16 0 14 7 11
14 -7z m-270 -9 c3 -8 1 -15 -4 -15 -6 0 -10 7 -10 15 0 8 2 15 4 15 2 0 6 -7
10 -15z m569 -10 c-7 -21 -13 -19 -13 6 0 11 4 18 10 14 5 -3 7 -12 3 -20z
m-353 -112 c-11 -17 -11 -17 -6 0 3 10 6 24 7 30 0 9 2 9 5 0 3 -7 0 -20 -6
-30z m332 15 c-7 -7 -12 -8 -12 -2 0 14 12 26 19 19 2 -3 -1 -11 -7 -17z
m-212 -48 c0 -5 -4 -10 -10 -10 -5 0 -10 5 -10 10 0 6 5 10 10 10 6 0 10 -4
10 -10z m-223 -89 c0 -11 -7 -17 -14 -14 -9 4 -9 8 0 19 16 17 16 17 14 -5z
m383 -251 c0 -5 -5 -10 -11 -10 -5 0 -7 5 -4 10 3 6 8 10 11 10 2 0 4 -4 4
-10z m367 -182 c-3 -7 -5 -2 -5 12 0 14 2 19 5 13 2 -7 2 -19 0 -25z m10 -40
c-3 -8 -6 -5 -6 6 -1 11 2 17 5 13 3 -3 4 -12 1 -19z m341 -349 c-3 -8 -7 -3
-11 10 -4 17 -3 21 5 13 5 -5 8 -16 6 -23z m-18 -49 c0 -5 -7 -10 -16 -10 -8
0 -12 5 -9 10 3 6 10 10 16 10 5 0 9 -4 9 -10z m-496 -186 c3 -8 2 -12 -4 -9
-6 3 -10 10 -10 16 0 14 7 11 14 -7z m123 -96 c-3 -7 -5 -2 -5 12 0 14 2 19 5
13 2 -7 2 -19 0 -25z m550 0 c-3 -8 -6 -5 -6 6 -1 11 2 17 5 13 3 -3 4 -12 1
-19z m-560 -40 c-3 -8 -6 -5 -6 6 -1 11 2 17 5 13 3 -3 4 -12 1 -19z m513 2
c0 -5 -4 -10 -10 -10 -5 0 -10 5 -10 10 0 6 5 10 10 10 6 0 10 -4 10 -10z
m-250 -19 c0 -5 -7 -11 -15 -15 -15 -5 -20 5 -8 17 9 10 23 9 23 -2z m9 -108
c0 -5 -4 -17 -9 -28 -8 -18 -9 -17 -9 8 -1 15 4 27 9 27 6 0 10 -3 9 -7z m398
-145 c-3 -8 -6 -5 -6 6 -1 11 2 17 5 13 3 -3 4 -12 1 -19z m-670 -80 c-3 -8
-6 -5 -6 6 -1 11 2 17 5 13 3 -3 4 -12 1 -19z m668 -128 c3 -5 1 -10 -4 -10
-6 0 -11 5 -11 10 0 6 2 10 4 10 3 0 8 -4 11 -10z m-49 -168 c-11 -10 -13 3
-7 43 l6 40 3 -39 c2 -21 1 -41 -2 -44z m-399 16 c-3 -8 -6 -5 -6 6 -1 11 2
17 5 13 3 -3 4 -12 1 -19z m320 -10 c-3 -7 -5 -2 -5 12 0 14 2 19 5 13 2 -7 2
-19 0 -25z m-477 -360 c0 -5 -4 -8 -10 -8 -5 0 -10 10 -10 23 0 18 2 19 10 7
5 -8 10 -18 10 -22z m458 -313 c0 -16 -2 -15 -8 5 -11 34 -11 60 0 35 5 -11 8
-29 8 -40z m-491 -47 c-3 -8 -6 -5 -6 6 -1 11 2 17 5 13 3 -3 4 -12 1 -19z
m293 -1058 c0 -5 -4 -10 -10 -10 -5 0 -10 5 -10 10 0 6 5 10 10 10 6 0 10 -4
10 -10z m-260 -409 c0 -11 -5 -23 -12 -27 -7 -5 -9 -2 -5 8 3 9 0 21 -6 27 -8
8 -7 11 6 11 10 0 17 -8 17 -19z m-86 -127 c3 -8 2 -12 -4 -9 -6 3 -10 10 -10
16 0 14 7 11 14 -7z m-714 -644 c8 -5 11 -10 5 -10 -5 0 -17 5 -25 10 -8 5
-10 10 -5 10 6 0 17 -5 25 -10z m-136 -109 c-2 -3 -12 3 -22 13 -16 17 -16 18
5 5 12 -7 20 -15 17 -18z m-107 -47 c-3 -3 -12 -4 -19 -1 -8 3 -5 6 6 6 11 1
17 -2 13 -5z m-305 -73 c-8 -4 -13 -12 -12 -17 1 -5 -4 -10 -12 -12 -9 -2 -8
0 2 7 8 6 11 11 7 11 -5 0 -5 5 -2 10 3 6 12 10 18 10 8 0 8 -3 -1 -9z"/>
<path d="M3183 6087 c-34 -17 -62 -35 -62 -39 -1 -5 23 -8 52 -8 60 0 260 -24
360 -44 56 -11 67 -11 67 0 0 16 -40 34 -175 80 -147 49 -168 50 -242 11z"/>
<path d="M1706 6033 c-6 -14 -5 -15 5 -6 7 7 10 15 7 18 -3 3 -9 -2 -12 -12z"/>
<path d="M1661 5951 c-17 -34 -29 -61 -27 -61 7 0 66 113 62 118 -3 2 -19 -23
-35 -57z"/>
<path d="M2845 5940 c8 -37 18 -50 165 -205 109 -115 349 -370 435 -462 31
-35 62 -60 68 -56 5 3 8 2 4 -3 -6 -10 18 -39 144 -172 43 -46 83 -81 88 -77
6 3 9 0 6 -7 -3 -8 8 -27 25 -43 l30 -29 0 33 c0 26 -13 46 -69 105 -39 41
-72 71 -75 68 -3 -3 -6 0 -6 6 0 6 -39 53 -87 104 -49 51 -115 121 -147 155
-44 46 -62 59 -69 50 -6 -8 -7 -7 -4 5 6 19 -15 42 -28 30 -5 -4 -6 -2 -2 3 7
13 -47 77 -57 68 -3 -3 -6 0 -6 8 0 8 -15 29 -33 47 -27 26 -36 30 -47 20 -12
-11 -12 -10 -2 3 10 14 5 23 -29 60 -22 24 -38 38 -34 32 4 -8 1 -11 -9 -7 -8
3 -13 11 -11 17 2 7 -54 73 -126 147 -121 125 -130 132 -124 100z"/>
<path d="M3240 5915 c12 -13 27 -22 33 -18 6 3 7 1 3 -5 -3 -6 33 -52 81 -102
l88 -92 52 57 c28 31 56 69 61 84 9 27 8 28 -37 44 -25 9 -59 19 -75 21 -16 3
-52 10 -80 15 -28 5 -73 12 -100 15 l-50 6 24 -25z"/>
<path d="M3622 5747 c-23 -24 -31 -39 -26 -53 4 -14 3 -16 -4 -5 -8 11 -16 7
-41 -20 -17 -19 -30 -38 -30 -44 0 -5 36 -48 80 -95 44 -47 78 -79 74 -72 -3
6 -2 12 3 12 9 0 32 81 67 236 4 17 -5 28 -35 48 -22 14 -43 26 -48 26 -4 0
-23 -15 -40 -33z m-29 -152 c-3 -9 -8 -14 -10 -11 -3 3 -2 9 2 15 9 16 15 13
8 -4z"/>
<path d="M4747 5734 c-8 -8 1 -24 14 -24 5 0 9 7 9 15 0 15 -12 20 -23 9z"/>
<path d="M3773 5458 l-20 -83 25 -33 c14 -18 31 -31 37 -28 7 2 12 -2 11 -11
0 -8 8 -21 20 -29 20 -14 21 -12 38 66 l18 81 -53 57 c-29 31 -53 58 -54 60
-1 1 -11 -35 -22 -80z"/>
<path d="M3273 5326 c-9 -16 -119 -141 -147 -167 -10 -10 -15 -23 -11 -30 5
-8 4 -10 -3 -5 -7 4 -45 -25 -95 -72 -107 -104 -196 -182 -295 -262 -45 -36
-84 -72 -87 -82 -8 -21 5 -69 16 -62 5 3 6 -1 3 -9 -3 -8 16 -43 42 -78 74
-100 85 -111 101 -97 10 8 12 7 8 -4 -4 -11 2 -18 22 -23 65 -17 74 -15 117
16 25 17 58 31 77 32 33 2 38 -2 115 -109 19 -26 23 -27 38 -15 9 8 15 20 12
28 -3 8 -2 12 3 9 9 -6 56 62 149 210 58 93 149 282 186 383 l25 69 -31 39
c-16 21 -34 37 -39 36 -5 -2 -8 1 -6 6 2 10 -172 201 -184 201 -5 0 -12 -6
-16 -14z m-13 -106 c0 -5 -5 -10 -11 -10 -5 0 -7 5 -4 10 3 6 8 10 11 10 2 0
4 -4 4 -10z m120 -40 c0 -5 -4 -10 -10 -10 -5 0 -10 5 -10 10 0 6 5 10 10 10
6 0 10 -4 10 -10z m37 -46 c-9 -9 -28 6 -21 18 4 6 10 6 17 -1 6 -6 8 -13 4
-17z m-303 -72 c2 -4 -4 -8 -14 -8 -10 0 -16 4 -14 8 3 4 9 8 14 8 5 0 11 -4
14 -8z m345 -118 c1 11 3 17 6 14 4 -3 3 -18 -1 -34 -6 -25 -8 -26 -15 -9 -11
28 -10 55 1 30 8 -19 9 -19 9 -1z m-522 -28 c-3 -8 -1 -17 6 -20 8 -3 6 -5 -3
-5 -8 0 -22 4 -30 9 -13 8 -12 10 3 10 10 0 15 5 12 10 -3 6 -1 10 5 10 7 0
10 -6 7 -14z m178 -437 c11 -16 1 -19 -13 -3 -7 8 -8 14 -3 14 5 0 13 -5 16
-11z"/>
<path d="M4035 5259 c-115 -77 -145 -102 -145 -122 0 -14 20 -4 114 58 64 42
84 60 80 73 -5 13 -4 14 4 3 8 -11 18 -8 56 18 43 30 52 51 23 51 -7 0 -66
-37 -132 -81z"/>
<path d="M4203 5170 c-61 -41 -131 -91 -178 -127 -5 -5 -40 -28 -77 -51 -57
-37 -89 -74 -76 -87 4 -4 354 251 393 287 45 42 19 33 -62 -22z"/>
<path d="M4344 5004 c37 -481 5 -766 -121 -1054 -47 -107 -132 -242 -203 -323
-22 -24 -36 -48 -32 -51 4 -4 2 -6 -3 -5 -16 5 -77 -59 -69 -72 4 -8 3 -9 -4
-5 -18 11 -244 -214 -277 -275 -26 -49 -27 -53 -10 -65 47 -35 274 -44 360
-15 17 6 55 17 85 25 31 9 76 28 100 45 47 31 126 59 136 48 8 -8 -31 -92 -57
-126 -10 -13 -16 -28 -12 -34 3 -5 1 -7 -4 -4 -6 4 -19 -5 -29 -19 -23 -31
-111 -92 -177 -122 -155 -72 -350 -42 -480 74 -20 19 -41 34 -47 34 -22 0 -40
-61 -40 -136 l0 -76 29 4 c17 2 28 1 26 -3 -3 -3 11 -9 29 -12 19 -3 52 -17
75 -31 39 -25 41 -28 41 -77 0 -27 -5 -69 -11 -92 -13 -54 5 -99 95 -234 89
-132 96 -142 128 -184 15 -20 28 -42 28 -48 0 -19 -35 -12 -74 14 -20 13 -36
22 -36 19 0 -18 75 -164 84 -164 32 0 317 164 346 199 3 3 24 19 48 35 55 38
207 189 281 280 116 143 236 350 295 509 14 37 25 68 25 70 0 1 5 16 13 32 21
49 11 438 -13 501 -4 12 -6 24 -3 26 6 7 -32 267 -44 298 -5 14 -13 50 -17 80
-3 30 -10 69 -15 85 -5 17 -14 50 -20 75 -29 114 -54 188 -63 183 -6 -3 -7 -1
-3 5 7 12 -14 103 -23 97 -3 -2 -7 8 -7 21 -2 29 -36 114 -46 114 -5 0 -8 8
-8 18 0 10 -9 37 -20 60 -11 23 -25 54 -30 68 -6 14 -14 22 -20 19 -5 -3 -7 0
-5 7 3 7 -15 44 -40 82 -25 38 -45 71 -45 73 0 13 -54 82 -68 86 -9 3 -25 8
-36 12 -17 8 -18 3 -12 -71z m96 -20 c0 -8 -19 -13 -24 -6 -3 5 1 9 9 9 8 0
15 -2 15 -3z m291 -837 c-10 -9 -11 -8 -5 6 3 10 9 15 12 12 3 -3 0 -11 -7
-18z m96 -289 c-3 -8 -6 -5 -6 6 -1 11 2 17 5 13 3 -3 4 -12 1 -19z m-584
-585 c-4 -11 -9 -11 -22 -1 -9 7 -18 14 -20 15 -3 2 7 2 21 1 17 -1 24 -7 21
-15z m607 -118 c0 -8 -4 -15 -10 -15 -5 0 -10 7 -10 15 0 8 5 15 10 15 6 0 10
-7 10 -15z m-1265 -275 c13 -6 15 -9 5 -9 -8 0 -22 4 -30 9 -18 12 -2 12 25 0z
m1114 -58 c7 -14 6 -18 -8 -18 -12 0 -17 6 -13 18 2 10 6 18 8 18 2 0 8 -8 13
-18z m-139 -102 c0 -5 -2 -10 -4 -10 -3 0 -8 5 -11 10 -3 6 -1 10 4 10 6 0 11
-4 11 -10z m40 -62 c0 -6 -7 -5 -15 2 -8 7 -15 17 -15 22 0 6 7 5 15 -2 8 -7
15 -17 15 -22z m-180 -182 c0 -3 -4 -8 -10 -11 -5 -3 -10 -1 -10 4 0 6 5 11
10 11 6 0 10 -2 10 -4z m-25 -76 c3 -6 -1 -7 -9 -4 -18 7 -21 14 -7 14 6 0 13
-4 16 -10z m-130 -80 c3 -6 -1 -7 -9 -4 -18 7 -21 14 -7 14 6 0 13 -4 16 -10z
m-253 -82 c-9 -9 -15 -9 -24 0 -9 9 -7 12 12 12 19 0 21 -3 12 -12z m-97 -17
c-3 -6 -11 -11 -16 -11 -5 0 -4 6 3 14 14 16 24 13 13 -3z m2 -157 c-6 -6 -47
9 -47 17 0 5 11 3 25 -3 14 -6 24 -13 22 -14z"/>
<path d="M4194 4945 c9 -73 -9 -329 -28 -410 -4 -16 -12 -50 -17 -75 -17 -76
-31 -134 -36 -153 -6 -23 -43 -43 -52 -28 -6 9 -47 -93 -44 -109 1 -3 -18 -43
-40 -89 -45 -91 -67 -107 -124 -92 -46 12 -39 44 21 110 62 67 74 89 105 184
42 126 80 402 81 575 l0 93 -47 -32 c-64 -44 -81 -64 -94 -113 -17 -66 -60
-198 -76 -235 -8 -19 -16 -44 -17 -57 0 -12 -3 -21 -5 -18 -2 2 -19 -31 -38
-74 -48 -107 -49 -111 -83 -167 -17 -27 -33 -58 -36 -67 -4 -10 -10 -18 -14
-18 -4 0 -12 -11 -18 -25 -14 -30 -82 -123 -129 -178 l-33 -37 31 -43 c29 -40
30 -46 25 -112 -6 -88 -7 -95 -17 -89 -5 3 -84 -57 -176 -132 -92 -76 -170
-139 -171 -140 -2 -1 7 -22 21 -46 14 -24 35 -61 46 -83 l21 -40 0 33 c0 31 2
33 32 30 24 -2 34 -9 36 -23 5 -39 34 -161 49 -212 l16 -52 19 57 c11 31 25
62 32 67 6 6 25 28 41 50 33 43 50 62 203 208 57 55 99 103 96 109 -4 6 -2 8
3 5 9 -6 55 38 103 99 39 48 111 154 106 154 -3 0 3 9 15 21 12 12 19 29 16
40 -3 10 -1 17 4 16 22 -5 112 196 145 323 2 8 11 40 19 70 46 162 59 448 29
646 -17 117 -31 157 -20 59z m-397 -557 c-3 -8 -6 -5 -6 6 -1 11 2 17 5 13 3
-3 4 -12 1 -19z m154 -95 c-12 -20 -14 -14 -5 12 4 9 9 14 11 11 3 -2 0 -13
-6 -23z m-97 -169 c3 -8 2 -12 -4 -9 -6 3 -10 10 -10 16 0 14 7 11 14 -7z
m-259 -174 c3 -5 1 -10 -4 -10 -6 0 -11 5 -11 10 0 6 2 10 4 10 3 0 8 -4 11
-10z m275 -4 c0 -2 -7 -6 -15 -10 -8 -3 -15 -1 -15 4 0 6 7 10 15 10 8 0 15
-2 15 -4z m-535 -626 c3 -5 1 -10 -4 -10 -6 0 -11 5 -11 10 0 6 2 10 4 10 3 0
8 -4 11 -10z m123 -44 c-7 -8 -15 -12 -17 -11 -5 6 10 25 20 25 5 0 4 -6 -3
-14z"/>
<path d="M3513 4763 c-59 -120 -111 -220 -114 -223 -3 -3 -14 -21 -24 -40 -11
-19 -34 -61 -53 -92 -18 -32 -30 -63 -26 -69 4 -7 3 -9 -3 -6 -12 8 -53 -55
-53 -80 0 -21 42 -83 56 -83 16 0 159 160 158 176 -1 8 2 11 7 9 7 -5 119 135
119 148 0 3 16 28 35 57 19 29 38 63 41 76 3 13 9 24 13 24 9 0 41 66 41 85 0
8 5 15 11 15 7 0 9 9 6 22 -4 14 0 26 11 34 12 9 14 17 7 32 -10 20 -95 115
-114 126 -5 4 -58 -92 -118 -211z m107 -148 c0 -5 -5 -3 -10 5 -5 8 -10 20
-10 25 0 6 5 3 10 -5 5 -8 10 -19 10 -25z m-263 -227 c-3 -8 -6 -5 -6 6 -1 11
2 17 5 13 3 -3 4 -12 1 -19z m-47 -142 c0 -2 -7 -7 -16 -10 -8 -3 -12 -2 -9 4
6 10 25 14 25 6z"/>
<path d="M5353 4863 c31 -59 170 -346 248 -511 118 -247 209 -488 254 -662 0
-3 4 -22 8 -43 5 -24 12 -35 19 -31 7 4 8 3 4 -4 -4 -7 0 -54 9 -104 54 -313
46 -766 -21 -1143 -7 -44 -16 -93 -19 -110 -17 -106 -106 -492 -144 -625 -10
-36 -30 -105 -44 -154 -14 -49 -22 -85 -18 -80 19 20 87 103 106 129 86 117
216 391 230 485 0 3 3 10 6 15 23 41 66 257 83 420 30 288 15 555 -54 945 -31
178 -141 521 -236 740 -49 110 -123 261 -133 270 -3 3 -7 12 -9 20 -8 36 -210
364 -235 381 -5 3 -9 10 -9 15 -1 11 -57 94 -64 94 -3 0 6 -21 19 -47z m604
-1325 c-3 -7 -5 -2 -5 12 0 14 2 19 5 13 2 -7 2 -19 0 -25z m-70 -1230 c-3 -8
-6 -5 -6 6 -1 11 2 17 5 13 3 -3 4 -12 1 -19z m30 0 c-3 -8 -6 -5 -6 6 -1 11
2 17 5 13 3 -3 4 -12 1 -19z m-20 -100 c-3 -7 -5 -2 -5 12 0 14 2 19 5 13 2
-7 2 -19 0 -25z m-83 -453 c-4 -8 -8 -15 -10 -15 -2 0 -4 7 -4 15 0 8 4 15 10
15 5 0 7 -7 4 -15z"/>
<path d="M3736 4617 c-39 -78 -84 -166 -102 -196 -18 -30 -31 -58 -28 -63 3
-5 2 -7 -3 -6 -5 2 -40 -35 -78 -82 -38 -47 -88 -107 -112 -135 -24 -27 -43
-54 -43 -60 0 -6 10 -25 23 -42 l23 -32 30 37 c51 64 134 182 137 195 1 7 5
14 8 17 12 10 63 96 99 169 42 85 132 343 118 340 -2 0 -34 -64 -72 -142z
m-285 -510 c-10 -9 -11 -8 -5 6 3 10 9 15 12 12 3 -3 0 -11 -7 -18z"/>
<path d="M2614 4510 c21 -90 26 -119 26 -147 0 -40 17 -43 49 -9 26 28 24 35
-41 126 -28 39 -38 48 -34 30z"/>
<path d="M2950 4380 c-14 -11 -20 -20 -14 -20 6 0 19 9 29 20 23 25 17 25 -15
0z"/>
<path d="M2832 4370 c7 -10 14 -18 15 -16 6 6 -9 36 -18 36 -5 0 -4 -9 3 -20z"/>
<path d="M3060 4352 c0 -6 70 -104 156 -219 85 -114 165 -221 177 -238 12 -16
35 -43 50 -60 l28 -30 -20 41 c-11 23 -26 48 -34 55 -7 8 -68 88 -137 179
-143 191 -220 286 -220 272z"/>
<path d="M2730 4314 c-76 -59 -76 -64 -4 -38 82 30 92 38 74 59 -17 20 -18 20
-70 -21z"/>
<path d="M2913 4297 c-39 -29 -105 -77 -147 -107 -42 -30 -76 -61 -76 -68 0
-9 5 -10 18 -3 18 10 247 192 272 217 26 26 6 14 -67 -39z"/>
<path d="M2980 4258 c-13 -13 -43 -36 -66 -53 -83 -60 -224 -177 -234 -194
-15 -28 10 -98 30 -86 5 3 12 0 16 -6 4 -8 3 -9 -4 -5 -27 16 -7 -15 74 -119
47 -60 90 -109 95 -107 6 1 9 -4 7 -11 -2 -7 13 -33 32 -57 19 -25 38 -49 43
-55 4 -5 24 -31 44 -58 l36 -47 -24 -21 c-13 -12 -44 -33 -69 -47 -25 -14 -47
-29 -50 -32 -14 -18 -156 -16 -207 2 -41 15 -43 15 -43 -3 0 -30 56 -52 136
-52 68 0 74 2 145 48 41 26 76 50 79 54 3 3 59 47 124 96 66 49 130 99 142
110 12 11 50 40 83 64 34 24 61 50 61 58 0 14 -39 67 -140 194 -25 31 -71 91
-104 132 -32 42 -62 75 -66 72 -4 -3 -7 1 -6 9 1 15 -89 136 -102 136 -5 0
-19 -10 -32 -22z m47 -41 c22 -31 45 -59 101 -122 15 -16 35 -42 44 -56 9 -14
23 -32 30 -40 8 -8 43 -52 78 -98 35 -47 71 -92 79 -101 26 -27 41 -58 35 -72
-3 -7 -33 -34 -67 -60 -74 -56 -60 -64 -195 112 -52 69 -98 127 -101 130 -13
11 -69 87 -81 110 -7 13 -19 31 -27 38 -7 8 -25 30 -40 49 l-27 35 29 25 c48
40 108 83 114 83 3 0 16 -15 28 -33z m-157 -144 c14 -20 34 -46 45 -57 18 -19
143 -179 272 -348 24 -31 43 -60 43 -65 0 -14 -137 -119 -145 -112 -2 2 -31
40 -65 84 -34 44 -67 79 -72 77 -5 -1 -7 2 -4 6 5 8 -59 96 -149 207 -14 17
-25 33 -25 37 0 4 -12 20 -26 35 -15 15 -34 39 -42 52 -14 21 -14 25 -1 35 9
6 31 23 50 38 83 66 81 66 119 11z"/>
<path d="M3059 4054 c-1 -5 -1 -12 0 -16 0 -4 -6 -5 -14 -2 -21 8 -19 -8 3
-32 10 -11 27 -32 36 -47 10 -15 23 -24 29 -20 5 3 7 1 4 -5 -7 -10 74 -119
100 -135 7 -4 13 -15 13 -22 0 -17 18 -19 39 -6 12 8 12 11 -1 25 -9 8 -19 12
-22 8 -4 -3 -4 1 0 11 3 10 1 17 -5 17 -6 0 -11 5 -11 11 0 5 -18 31 -40 57
-21 26 -60 74 -85 106 -25 33 -46 55 -46 50z"/>
<path d="M2878 3914 c-15 -16 -12 -23 45 -98 83 -110 146 -186 152 -187 3 0
13 4 21 9 14 8 14 12 3 31 -8 11 -19 19 -26 17 -7 -3 -10 1 -7 8 3 7 -10 31
-28 53 -18 22 -49 59 -68 83 -19 24 -40 48 -46 54 -6 6 -15 19 -20 28 -9 17
-11 17 -26 2z"/>
<path d="M2719 4231 c-1 -3 -1 -9 0 -13 0 -4 -5 -5 -12 -2 -19 7 -48 -19 -39
-34 6 -9 16 -6 38 13 16 14 32 25 37 25 4 0 7 4 7 8 0 10 -29 12 -31 3z"/>
<path d="M2750 3718 c41 -45 50 -53 50 -45 0 2 -21 23 -47 47 l-48 45 45 -47z"/>
<path d="M2678 3645 c-5 -147 5 -171 81 -194 69 -20 75 -17 67 36 -7 56 -39
113 -100 179 l-45 49 -3 -70z"/>
<path d="M2865 3545 c3 -11 11 -41 17 -67 6 -27 15 -48 19 -48 9 0 -18 97 -33
120 -7 12 -8 10 -3 -5z"/>
<path d="M860 3420 c0 -5 7 -10 16 -10 8 0 12 5 9 10 -3 6 -10 10 -16 10 -5 0
-9 -4 -9 -10z"/>
<path d="M2690 3415 c14 -8 32 -14 40 -14 8 0 0 6 -19 14 -42 19 -54 19 -21 0z"/>
<path d="M2758 3393 c7 -3 16 -2 19 1 4 3 -2 6 -13 5 -11 0 -14 -3 -6 -6z"/>
<path d="M5391 3314 c0 -11 3 -14 6 -6 3 7 2 16 -1 19 -3 4 -6 -2 -5 -13z"/>
<path d="M2646 3208 c-3 -24 -12 -104 -21 -178 -17 -135 -32 -180 -61 -180 -8
0 -23 17 -32 38 -17 37 -17 32 -17 -203 -1 -151 -6 -267 -14 -313 -7 -40 -11
-76 -8 -79 6 -5 99 134 130 192 28 53 81 160 82 165 0 3 6 14 12 26 7 11 14
33 17 48 3 15 9 33 14 39 13 17 58 152 76 227 20 85 46 219 46 234 0 9 -24 12
-82 12 -46 -1 -95 2 -110 7 -26 7 -27 5 -32 -35z m71 -305 c-3 -10 -5 -4 -5
12 0 17 2 24 5 18 2 -7 2 -21 0 -30z m-77 -61 c0 -8 -43 -32 -56 -32 -12 0 10
22 30 30 27 11 26 11 26 2z m-107 -422 c3 -11 1 -20 -4 -20 -5 0 -9 9 -9 20 0
11 2 20 4 20 2 0 6 -9 9 -20z"/>
<path d="M880 3135 c0 -16 35 -20 64 -9 29 11 16 24 -24 24 -29 0 -40 -4 -40
-15z"/>
<path d="M5259 3018 c-24 -57 -43 -109 -43 -115 1 -7 -2 -11 -6 -8 -4 3 -16
-12 -25 -33 -10 -20 -29 -54 -42 -75 -13 -21 -21 -43 -17 -49 4 -6 3 -8 -3 -5
-6 4 -23 -12 -38 -35 -15 -23 -32 -47 -37 -52 -4 -6 -18 -22 -29 -36 -38 -45
-47 -64 -84 -175 -39 -118 -157 -365 -219 -458 -16 -23 -16 -30 -5 -45 13 -15
12 -16 -2 -4 -15 11 -20 8 -38 -21 -11 -18 -29 -44 -41 -56 -22 -27 -25 -37
-10 -46 6 -3 10 -12 10 -18 0 -7 -5 -4 -11 6 -8 14 -14 16 -25 6 -8 -6 -14
-15 -14 -19 0 -5 -9 -19 -20 -32 -11 -12 -54 -70 -97 -128 -87 -118 -335 -373
-432 -444 -35 -25 -59 -46 -55 -46 5 0 -2 -6 -16 -14 -14 -7 -70 -42 -125 -77
-55 -35 -154 -92 -220 -127 -122 -64 -126 -68 -45 -37 111 42 229 99 223 108
-3 6 -1 7 5 3 13 -8 74 21 155 75 32 22 62 39 66 39 4 0 16 8 27 18 10 9 30
24 44 33 117 75 417 350 404 370 -3 5 0 8 7 7 28 -6 317 371 303 394 -4 6 -2
8 4 5 13 -9 104 143 97 161 -3 7 -1 11 4 8 4 -3 32 45 61 107 52 109 54 115
54 202 1 103 14 129 62 123 25 -3 29 -8 32 -38 4 -36 -14 -137 -28 -155 -4 -5
-10 -23 -14 -39 -12 -47 -71 -173 -133 -281 -12 -22 -28 -51 -35 -65 -7 -14
-15 -27 -19 -30 -22 -19 -109 -163 -103 -172 4 -6 3 -8 -3 -5 -11 7 -106 -109
-106 -130 0 -7 -3 -10 -7 -8 -11 7 -51 -45 -44 -57 4 -6 3 -8 -4 -5 -5 4 -22
-8 -37 -25 -75 -91 -227 -239 -336 -329 -35 -29 -66 -56 -69 -59 -12 -13 -220
-147 -265 -170 -27 -14 -57 -30 -65 -35 -55 -35 -300 -126 -407 -150 -47 -11
-79 -23 -76 -28 3 -6 2 -7 -4 -4 -5 3 -59 -1 -119 -9 -194 -26 -446 -17 -612
22 -34 8 -68 12 -75 8 -6 -4 -9 -3 -4 1 4 5 -32 22 -80 37 -89 29 -306 133
-351 169 -26 20 -47 26 -37 9 3 -6 -1 -7 -10 -3 -13 4 -14 8 -4 14 15 9 15 8
-23 32 -15 9 -53 38 -85 64 l-58 47 44 -50 c99 -110 227 -226 274 -247 15 -6
27 -15 27 -19 0 -13 60 -39 72 -32 6 4 8 3 5 -3 -7 -12 49 -46 63 -38 6 4 9 1
8 -5 -2 -9 111 -63 167 -79 6 -2 20 -7 32 -12 33 -12 127 -34 213 -50 97 -18
448 -18 550 -1 97 17 255 57 350 88 97 33 210 84 210 96 0 5 4 7 9 4 10 -7
151 65 198 100 17 13 34 24 38 24 11 0 127 82 205 144 175 141 313 281 304
310 -4 17 -3 18 5 6 8 -10 13 -12 19 -4 10 15 85 106 98 121 21 22 142 208
165 253 13 25 26 47 30 50 10 7 75 141 109 225 102 251 147 424 184 700 15
112 32 405 24 405 -3 0 -25 -46 -49 -102z m-19 -278 c0 -5 -4 -10 -10 -10 -5
0 -10 5 -10 10 0 6 5 10 10 10 6 0 10 -4 10 -10z m-195 -180 c-3 -5 -12 -10
-18 -10 -7 0 -6 4 3 10 19 12 23 12 15 0z m36 -555 c5 4 6 -2 2 -11 -4 -11 -8
-13 -11 -6 -2 7 -10 12 -18 12 -8 0 -14 5 -14 11 0 5 5 7 10 4 6 -3 11 4 11
17 2 19 3 19 6 -5 2 -15 9 -25 14 -22z m-211 -170 c0 -8 -2 -15 -4 -15 -2 0
-6 7 -10 15 -3 8 -1 15 4 15 6 0 10 -7 10 -15z m-10 -55 c0 -5 -4 -10 -10 -10
-5 0 -10 5 -10 10 0 6 5 10 10 10 6 0 10 -4 10 -10z m-140 -158 c0 -5 -7 -9
-15 -9 -8 0 -12 4 -9 9 3 4 9 8 15 8 5 0 9 -4 9 -8z m88 -12 c12 -19 11 -20
-8 -8 -20 13 -27 28 -12 28 4 0 13 -9 20 -20z m-108 -60 c0 -5 -5 -10 -11 -10
-5 0 -7 5 -4 10 3 6 8 10 11 10 2 0 4 -4 4 -10z m-70 -50 c0 -5 -5 -10 -11
-10 -5 0 -7 5 -4 10 3 6 8 10 11 10 2 0 4 -4 4 -10z m1 -43 c-10 -9 -11 -8 -5
6 3 10 9 15 12 12 3 -3 0 -11 -7 -18z m66 -13 c-3 -3 -12 -4 -19 -1 -8 3 -5 6
6 6 11 1 17 -2 13 -5z m-161 -62 c-18 -16 -18 -16 -6 6 6 13 14 21 18 18 3 -4
-2 -14 -12 -24z m-136 -142 c0 -5 -2 -10 -4 -10 -3 0 -8 5 -11 10 -3 6 -1 10
4 10 6 0 11 -4 11 -10z m-15 -20 c3 -5 2 -10 -4 -10 -5 0 -13 5 -16 10 -3 6
-2 10 4 10 5 0 13 -4 16 -10z m-272 -247 c-7 -2 -19 -2 -25 0 -7 3 -2 5 12 5
14 0 19 -2 13 -5z m-1876 -98 c0 -8 -4 -12 -9 -9 -5 3 -6 10 -3 15 9 13 12 11
12 -6z m1833 11 c0 -3 -4 -8 -10 -11 -5 -3 -10 -1 -10 4 0 6 5 11 10 11 6 0
10 -2 10 -4z m-873 -232 c-3 -3 -12 -4 -19 -1 -8 3 -5 6 6 6 11 1 17 -2 13 -5z"/>
<path d="M3575 3082 c61 -52 125 -82 208 -97 49 -10 149 3 141 17 -5 7 -2 8 5
4 14 -9 60 8 114 42 39 24 46 43 9 23 -62 -33 -330 -31 -437 3 -27 9 -45 13
-40 8z"/>
<path d="M3330 2805 c-198 -46 -440 -176 -577 -310 -70 -68 -74 -83 -47 -170
19 -63 12 -122 -28 -230 -86 -236 -134 -415 -111 -415 7 0 312 254 323 270 3
3 48 40 100 81 244 193 400 272 590 299 47 7 86 14 88 15 2 2 -18 54 -45 116
-46 110 -48 117 -46 202 2 49 -2 97 -7 107 -25 47 -127 62 -240 35z"/>
<path d="M4739 2332 c-164 -140 -470 -286 -719 -343 -25 -5 -62 -14 -82 -20
l-37 -10 18 -52 c33 -93 51 -158 71 -258 20 -99 42 -317 34 -331 -13 -21 13
-4 54 35 218 205 396 415 537 631 76 117 138 235 131 252 -3 8 -2 13 3 10 5
-3 16 10 25 29 25 53 46 115 38 114 -4 0 -37 -26 -73 -57z m-143 -154 c-10 -6
-22 -6 -26 -2 -5 5 3 10 18 11 22 1 24 0 8 -9z m104 5 c-1 -5 -8 -19 -16 -33
-8 -14 -13 -17 -10 -7 3 10 6 25 6 33 0 8 5 14 10 14 6 0 10 -3 10 -7z m-234
-68 c-11 -8 -25 -15 -30 -15 -6 1 0 7 14 15 32 19 40 18 16 0z m-207 -96 c-15
-9 -32 -2 -24 11 3 5 13 6 21 3 12 -4 13 -8 3 -14z m319 -34 c-3 -3 -9 2 -12
12 -6 14 -5 15 5 6 7 -7 10 -15 7 -18z m-558 -39 c0 -2 -7 -7 -16 -10 -8 -3
-12 -2 -9 4 6 10 25 14 25 6z m513 -25 c-4 -3 -10 -9 -13 -12 -3 -4 -10 -1
-17 6 -9 10 -6 13 13 13 14 0 21 -3 17 -7z m-466 -463 c-3 -8 -6 -5 -6 6 -1
11 2 17 5 13 3 -3 4 -12 1 -19z"/>
<path d="M2573 2255 c-18 -29 -33 -56 -33 -59 0 -4 13 0 30 9 21 11 31 25 36
49 10 57 1 57 -33 1z"/>
<path d="M3610 2237 c0 -20 -4 -38 -8 -41 -5 -3 -38 6 -74 19 l-66 24 -34 -57
-34 -57 -66 -3 -66 -3 -18 -52 -19 -52 -76 -3 -76 -3 -20 -67 c-13 -47 -24
-67 -35 -66 -8 1 -35 4 -60 8 l-46 7 -8 -68 -9 -68 -65 -5 -65 -5 -14 -45
c-29 -95 -26 -92 -75 -85 l-43 7 -44 -71 c-24 -39 -47 -71 -51 -71 -5 0 -8 20
-8 44 0 35 -4 46 -19 51 -38 12 -42 29 -14 70 25 37 25 39 7 52 -22 16 -21 16
-71 -77 -22 -41 -66 -122 -98 -180 -62 -113 -155 -305 -155 -318 0 -5 -7 -23
-16 -40 -8 -18 -14 -39 -12 -49 4 -20 171 -110 294 -158 97 -38 271 -85 315
-85 l26 0 7 116 c14 253 76 548 148 704 11 24 24 55 29 68 20 52 105 170 168
233 86 86 176 130 277 137 82 5 129 -7 194 -51 25 -17 55 -30 67 -29 33 2 133
42 133 53 0 5 -13 38 -28 72 -21 46 -43 75 -83 108 -95 79 -89 76 -89 36z
m-1183 -1063 c76 -25 142 -50 147 -55 6 -5 6 -27 0 -56 -7 -37 -14 -49 -29
-51 -12 -2 -74 15 -140 38 -65 22 -131 40 -146 40 -37 0 -41 9 -28 74 15 70
14 70 196 10z"/>
<path d="M2276 1154 c-8 -20 -11 -18 44 -31 25 -6 76 -23 115 -36 66 -25 84
-24 85 4 0 9 -52 31 -58 24 -3 -2 -10 -1 -16 4 -6 5 -38 16 -71 25 -33 10 -67
19 -76 22 -10 3 -19 -3 -23 -12z m209 -64 c3 -6 -1 -7 -9 -4 -18 7 -21 14 -7
14 6 0 13 -4 16 -10z"/>
<path d="M5219 2108 c-18 -51 -34 -95 -34 -98 -2 -14 -132 -259 -182 -341 -50
-83 -147 -225 -163 -239 -3 -3 -31 -36 -62 -75 -88 -111 -398 -405 -427 -405
-3 0 -17 -10 -31 -23 -14 -13 -79 -56 -145 -97 -200 -122 -416 -217 -615 -269
-185 -48 -244 -57 -430 -67 -233 -12 -463 25 -662 107 -81 33 -139 45 -283 59
-60 6 -175 27 -255 47 -80 20 -153 36 -162 37 -9 0 -14 4 -12 8 3 4 -1 8 -9 8
-21 0 -190 66 -271 106 -38 19 -76 32 -83 29 -8 -2 -12 -1 -9 3 3 5 -9 17 -27
27 -18 10 -74 45 -125 77 -52 32 -98 55 -103 52 -5 -3 -8 -1 -7 4 3 9 -110
103 -156 129 -11 7 -18 13 -13 13 4 0 -11 17 -34 37 -80 72 -243 247 -307 329
l-23 29 18 -33 c10 -18 26 -42 36 -53 10 -10 15 -19 12 -19 -7 0 89 -131 169
-230 85 -105 303 -324 388 -390 39 -30 76 -60 82 -66 21 -20 169 -120 219
-148 27 -14 53 -24 58 -20 5 3 8 1 7 -5 -5 -19 273 -158 292 -146 4 3 10 0 12
-6 3 -10 55 -33 103 -45 11 -3 29 -10 40 -15 23 -10 241 -68 282 -74 113 -19
212 -36 231 -40 15 -4 21 -2 17 5 -4 6 4 6 22 -2 47 -19 435 -15 583 6 69 9
136 22 150 27 14 5 39 11 55 13 108 15 441 119 465 145 3 4 12 7 20 9 25 6
181 83 249 124 34 21 67 38 71 38 5 0 23 15 41 33 18 17 29 25 24 17 -10 -17
-22 -26 130 91 174 132 314 275 454 461 25 34 40 62 35 69 -5 8 -3 9 6 4 10
-6 12 -4 7 9 -4 9 -3 15 2 12 9 -6 39 36 92 126 16 26 25 48 21 48 -4 0 -2 4
4 8 15 9 101 183 152 308 53 131 125 335 119 340 -2 3 -19 -37 -38 -88z m-402
-735 c-4 -3 -1 -13 6 -22 11 -14 10 -14 -5 -2 -16 12 -16 31 -1 31 4 0 3 -3 0
-7z m-3944 -130 c-3 -7 -9 -10 -14 -7 -14 8 -11 21 5 21 8 0 12 -6 9 -14z m97
-107 c0 -12 -5 -7 -19 24 -11 24 -11 24 3 6 9 -11 16 -24 16 -30z m90 -76 c-8
-5 -19 -10 -25 -10 -5 0 -3 5 5 10 8 5 20 10 25 10 6 0 3 -5 -5 -10z m65 -30
c3 -5 -1 -10 -10 -10 -9 0 -13 5 -10 10 3 6 8 10 10 10 2 0 7 -4 10 -10z
m3209 -128 c3 -5 -1 -9 -9 -9 -8 0 -12 4 -9 9 3 4 7 8 9 8 2 0 6 -4 9 -8z m96
-24 c0 -12 -6 -9 -26 13 -19 22 -19 22 4 8 12 -8 22 -17 22 -21z m-160 -72 c0
-2 -7 -7 -16 -10 -8 -3 -12 -2 -9 4 6 10 25 14 25 6z m-2790 -96 c0 -5 -2 -10
-4 -10 -3 0 -8 5 -11 10 -3 6 -1 10 4 10 6 0 11 -4 11 -10z m310 -55 c0 -2 -7
-5 -15 -9 -9 -3 -15 0 -15 9 0 9 6 12 15 9 8 -4 15 -7 15 -9z m10 -92 c-8 -3
-24 -10 -35 -15 -20 -9 -20 -9 -1 6 11 9 27 16 35 15 14 0 14 -1 1 -6z m2120
-3 c13 -8 13 -10 -2 -10 -9 0 -20 5 -23 10 -8 13 5 13 25 0z m-219 -33 c-13
-13 -26 -3 -16 12 3 6 11 8 17 5 6 -4 6 -10 -1 -17z m-246 -17 c-12 -5 -14 -9
-6 -9 8 -1 12 -3 9 -6 -3 -3 -13 -2 -22 1 -14 5 -15 9 -4 15 7 5 20 8 28 8 10
0 8 -3 -5 -9z m92 -26 c-3 -3 -12 -4 -19 -1 -8 3 -5 6 6 6 11 1 17 -2 13 -5z
m-1300 -100 c-3 -3 -12 -4 -19 -1 -8 3 -5 6 6 6 11 1 17 -2 13 -5z"/>
<path d="M2586 2128 c-23 -35 -47 -109 -39 -122 3 -6 3 -8 -1 -4 -4 3 -28 -32
-52 -80 -34 -65 -42 -87 -32 -94 7 -4 15 -8 18 -8 11 0 48 68 65 120 10 30 31
78 46 106 30 52 37 88 19 99 -5 3 -16 -5 -24 -17z"/>
<path d="M5652 1942 c-52 -92 -74 -130 -119 -199 -20 -32 -31 -58 -27 -70 4
-12 3 -14 -3 -6 -6 8 -33 -23 -88 -100 -43 -62 -105 -144 -137 -184 -32 -39
-58 -74 -58 -76 0 -3 -15 -21 -32 -40 -18 -19 -48 -52 -67 -73 -221 -257 -585
-568 -881 -754 -30 -19 -56 -38 -58 -42 -2 -5 -8 -8 -12 -8 -5 0 -50 -25 -100
-55 -51 -31 -124 -72 -163 -92 -68 -34 -83 -57 -21 -32 36 15 30 14 82 23 146
27 453 153 661 272 215 122 456 321 606 499 28 33 58 69 68 79 10 11 15 26 12
34 -2 7 -1 11 4 8 23 -14 226 319 214 351 -4 10 -2 14 4 10 6 -4 18 11 28 36
9 23 23 56 30 72 21 46 63 183 79 255 15 72 30 170 24 170 -1 0 -22 -35 -46
-78z m-58 -242 c-5 -5 -10 3 -11 18 -1 22 0 24 9 8 6 -10 6 -22 2 -26z m-89
-79 c-3 -6 -11 -11 -16 -11 -5 0 -4 6 3 14 14 16 24 13 13 -3z m35 -89 c0 -7
-4 -10 -10 -7 -5 3 -10 16 -10 28 0 18 2 19 10 7 5 -8 10 -21 10 -28z m-327
-497 c-3 -9 -8 -14 -10 -11 -3 3 -2 9 2 15 9 16 15 13 8 -4z m-123 -55 c0 -5
-9 -10 -21 -10 -11 0 -17 5 -14 10 3 6 13 10 21 10 8 0 14 -4 14 -10z m-130
-105 c0 -8 -2 -15 -4 -15 -2 0 -6 7 -10 15 -3 8 -1 15 4 15 6 0 10 -7 10 -15z
m-60 -71 c0 -2 -7 -4 -15 -4 -8 0 -15 4 -15 10 0 5 7 7 15 4 8 -4 15 -8 15
-10z m-10 -83 c0 -5 -9 -11 -20 -14 -11 -3 -20 -1 -20 3 0 5 8 11 18 13 9 3
18 5 20 6 1 0 2 -3 2 -8z"/>
<path d="M3698 1943 c-16 -4 -16 -6 -3 -20 25 -25 81 -116 109 -178 25 -54 70
-182 114 -325 l20 -65 1 52 c2 92 -29 283 -66 415 l-36 128 -61 -1 c-33 -1
-69 -3 -78 -6z"/>
<path d="M2358 1707 c-45 -45 -258 -325 -258 -340 0 -3 -27 -49 -60 -103 -33
-54 -60 -104 -60 -111 0 -13 81 -73 99 -73 8 0 18 19 26 50 3 11 24 59 49 110
14 29 26 58 26 63 0 4 7 15 16 24 8 9 12 23 9 31 -3 9 -3 13 1 10 6 -6 38 46
162 262 22 39 40 110 28 110 -2 0 -19 -15 -38 -33z m-31 -79 c-3 -8 -6 -5 -6
6 -1 11 2 17 5 13 3 -3 4 -12 1 -19z m-140 -260 c-3 -7 -5 -2 -5 12 0 14 2 19
5 13 2 -7 2 -19 0 -25z m-95 -204 c-6 -12 -9 -7 -9 16 0 23 3 28 9 16 5 -9 5
-23 0 -32z"/>
<path d="M2950 1319 c-35 -31 -35 -31 -3 -9 18 11 35 25 38 30 10 16 2 11 -35
-21z"/>
<path d="M1700 1174 c-30 -40 -59 -74 -66 -74 -6 0 -23 9 -37 20 l-25 20 -70
-88 c-64 -78 -69 -88 -54 -100 9 -7 23 -10 31 -7 9 3 12 3 8 -1 -4 -4 14 -18
40 -30 26 -13 48 -22 48 -21 1 1 11 16 23 34 27 38 28 50 5 32 -16 -13 -17
-12 -4 3 7 10 17 15 22 13 4 -3 20 13 34 35 21 33 24 45 14 56 -6 7 -16 11
-22 7 -5 -3 16 29 47 71 52 70 74 107 65 105 -2 0 -29 -34 -59 -75z m-49 -141
c-12 -20 -14 -14 -5 12 4 9 9 14 11 11 3 -2 0 -13 -6 -23z m-96 -73 c3 -5 1
-10 -4 -10 -6 0 -11 5 -11 10 0 6 2 10 4 10 3 0 8 -4 11 -10z"/>
<path d="M2891 1126 c-9 -10 -6 -24 9 -57 11 -24 18 -36 15 -26 -15 54 -16 69
-5 82 7 8 8 15 2 15 -5 0 -15 -6 -21 -14z"/>
<path d="M1897 958 c-25 -65 -45 -146 -38 -155 7 -10 105 -43 127 -43 7 0 16
12 19 28 3 15 9 44 14 65 4 20 4 38 0 38 -5 1 -15 2 -21 3 -7 0 -14 10 -16 22
-2 12 -18 35 -36 53 l-33 32 -16 -43z m37 -54 c3 -8 2 -12 -4 -9 -6 3 -10 10
-10 16 0 14 7 11 14 -7z m63 -100 c-3 -3 -12 -4 -19 -1 -8 3 -5 6 6 6 11 1 17
-2 13 -5z"/>
<path d="M2892 949 l-33 -39 36 -47 c27 -35 35 -53 30 -71 -3 -13 -2 -21 3
-18 5 3 39 6 76 7 47 1 66 5 66 15 0 7 -12 14 -27 16 -24 3 -34 16 -71 88 -24
47 -45 86 -46 87 0 1 -16 -16 -34 -38z"/>
<path d="M2087 803 c-4 -3 -7 -19 -7 -34 0 -28 5 -30 123 -54 33 -6 17 14 -42
55 -65 43 -64 43 -74 33z"/>
</g>
</svg>
